<?xml version="1.0" encoding="UTF-8" standalone="no"?>
<!-- Created with Inkscape (http://www.inkscape.org/) -->

<svg
   version="1.1"
   id="svg410"
   width="666.66669"
   height="666.66669"
   viewBox="0 0 666.66669 666.66669"
   xmlns="http://www.w3.org/2000/svg"
   xmlns:svg="http://www.w3.org/2000/svg">
  <defs
     id="defs414">
    <clipPath
       clipPathUnits="userSpaceOnUse"
       id="clipPath428">
      <path
         d="M 0,500 H 500 V 0 H 0 Z"
         id="path426" />
    </clipPath>
    <clipPath
       clipPathUnits="userSpaceOnUse"
       id="clipPath436">
      <path
         d="m 158.973,424.967 h 260.13 V 160.974 h -260.13 z"
         id="path434" />
    </clipPath>
    <clipPath
       clipPathUnits="userSpaceOnUse"
       id="clipPath456">
      <path
         d="m 287.414,334.363 h 47.512 v -21.445 h -47.512 z"
         id="path454" />
    </clipPath>
    <clipPath
       clipPathUnits="userSpaceOnUse"
       id="clipPath472">
      <path
         d="m 289.225,270.992 h 82.449 v -72.268 h -82.449 z"
         id="path470" />
    </clipPath>
    <clipPath
       clipPathUnits="userSpaceOnUse"
       id="clipPath488">
      <path
         d="M 171.855,433.162 H 424.127 V 217.876 H 171.855 Z"
         id="path486" />
    </clipPath>
    <clipPath
       clipPathUnits="userSpaceOnUse"
       id="clipPath512">
      <path
         d="M 72.5581,323.912 H 328.089 V 63.5153 H 72.5581 Z"
         id="path510" />
    </clipPath>
    <clipPath
       clipPathUnits="userSpaceOnUse"
       id="clipPath536">
      <path
         d="M 108.483,332.114 H 333.105 V 81.2619 H 108.483 Z"
         id="path534" />
    </clipPath>
  </defs>
  <g
     id="g418"
     transform="matrix(1.3333333,0,0,-1.3333333,0,666.66667)"
     style="display:inline">
    <g
       id="g422"
       style="display:inline">
      <g
         id="g2085"
         style="display:inline">
        <g
           id="g424"
           clip-path="url(#clipPath428)"
           style="display:inline">
          <g
             id="g430">
            <g
               id="g432" />
            <g
               id="g444">
              <g
                 clip-path="url(#clipPath436)"
                 opacity="0.199997"
                 id="g442">
                <g
                   transform="translate(371.046,209.084)"
                   id="g440">
                  <path
                     d="m 0,0 c -9.3,-9.31 -21.67,-14.43 -34.82,-14.43 -13.16,0 -25.52,5.12 -34.83,14.43 -9.3,9.3 -14.42,21.66 -14.42,34.82 0,13.15 5.12,25.52 14.42,34.83 9.31,9.3 21.67,14.42 34.83,14.42 C -21.67,84.07 -9.3,78.95 0,69.65 19.2,50.44 19.2,19.2 0,0 m 23.81,93.45 c -0.03,0.03 -0.07,0.07 -0.1,0.1 -0.01,0.01 -0.01,0.02 -0.02,0.03 l -78.34,78.33 c -33.45,33.46 -85.72,36.9 -123.05,10.35 l 0.28,16.49 c 0.15,9.3 -7.25,16.97 -16.55,17.13 -9.3,0.16 -16.96,-7.26 -17.13,-16.55 l -0.97,-57.39 c -0.01,-0.58 0.01,-1.15 0.06,-1.72 0.72,-8.5 7.77,-15.25 16.49,-15.4 l 57.38,-0.97 h 0.3 c 9.17,0 16.67,7.35 16.83,16.55 0.15,9.29 -7.25,16.96 -16.55,17.12 l -16.02,0.27 c 23.74,13.87 54.79,10.64 75.12,-9.69 l 31.14,-31.13 0.13,-0.14 c -17.46,-2.59 -33.56,-10.67 -46.27,-23.38 -3.49,-3.48 -6.62,-7.22 -9.38,-11.17 l -0.03,-0.02 c -9.66,-13.81 -14.88,-30.23 -14.88,-47.44 0,-22.15 8.63,-42.97 24.29,-58.63 15.66,-15.67 36.48,-24.3 58.64,-24.3 22.14,0 42.97,8.63 58.63,24.3 32.33,32.32 32.33,84.93 0,117.26"
                     style="fill:#1f1e21;fill-opacity:1;fill-rule:nonzero;stroke:none"
                     id="path438" />
                </g>
              </g>
            </g>
          </g>
          <g
             id="g446"
             transform="translate(377.8759,219.1039)">
            <path
               d="m 0,0 c -9.29,-9.31 -21.66,-14.43 -34.82,-14.43 -13.15,0 -25.52,5.12 -34.82,14.43 -9.3,9.3 -14.43,21.66 -14.43,34.82 0,13.16 5.13,25.52 14.43,34.83 9.3,9.3 21.67,14.42 34.82,14.42 C -21.66,84.07 -9.29,78.95 0,69.65 19.21,50.44 19.21,19.2 0,0 m 23.81,93.45 c -0.02,0.04 -0.06,0.07 -0.1,0.1 0,0.01 0,0.02 -0.01,0.03 l -78.34,78.33 c -33.46,33.46 -85.73,36.9 -123.06,10.35 l 0.28,16.49 c 0.16,9.3 -7.25,16.97 -16.55,17.13 -9.29,0.16 -16.95,-7.25 -17.12,-16.55 l -0.97,-57.39 c -0.01,-0.58 0.01,-1.15 0.06,-1.72 0.72,-8.5 7.77,-15.24 16.49,-15.4 l 57.38,-0.97 h 0.29 c 9.17,0 16.68,7.35 16.83,16.55 0.16,9.3 -7.25,16.96 -16.55,17.12 l -16.01,0.27 c 23.74,13.87 54.78,10.64 75.12,-9.69 l 31.27,-31.27 c -17.46,-2.59 -33.56,-10.67 -46.28,-23.38 -3.48,-3.48 -6.61,-7.22 -9.38,-11.16 l -0.02,-0.03 c -9.67,-13.81 -14.88,-30.23 -14.88,-47.44 0,-22.15 8.63,-42.97 24.28,-58.63 15.67,-15.67 36.49,-24.29 58.64,-24.29 22.15,0 42.98,8.62 58.63,24.29 32.34,32.33 32.34,84.93 0,117.26"
               style="fill:#36a9e0;fill-opacity:1;fill-rule:nonzero;stroke:none"
               id="path448" />
          </g>
          <g
             id="g450">
            <g
               id="g452" />
            <g
               id="g464">
              <g
                 clip-path="url(#clipPath456)"
                 opacity="0.800003"
                 id="g462">
                <g
                   transform="translate(332.5059,334.3628)"
                   id="g460">
                  <path
                     d="M 0,0 -1.547,-0.227 C -17.96,-2.666 -32.973,-9.981 -45.092,-21.445 -31.581,-11.801 -12.028,-4.558 2.42,-2.42 Z"
                     style="fill:#ffffff;fill-opacity:1;fill-rule:nonzero;stroke:none"
                     id="path458" />
                </g>
              </g>
            </g>
          </g>
          <g
             id="g466">
            <g
               id="g468" />
            <g
               id="g480">
              <g
                 clip-path="url(#clipPath472)"
                 opacity="0.800003"
                 id="g478">
                <g
                   transform="translate(343.06,202.8545)"
                   id="g476">
                  <path
                     d="m 0,0 c -13.638,0 -26.467,5.313 -36.112,14.967 -9.644,9.635 -14.957,22.464 -14.957,36.102 0,5.914 1,11.655 2.92,17.069 -3.721,-7.006 -5.686,-14.858 -5.686,-23.019 0,-13.156 5.122,-25.521 14.421,-34.82 9.307,-9.307 21.672,-14.43 34.828,-14.43 12.411,0 24.111,4.559 33.2,12.893 C 20.235,3.057 10.354,0 0,0"
                     style="fill:#ffffff;fill-opacity:1;fill-rule:nonzero;stroke:none"
                     id="path474" />
                </g>
              </g>
            </g>
          </g>
          <g
             id="g482">
            <g
               id="g484" />
            <g
               id="g496">
              <g
                 clip-path="url(#clipPath488)"
                 opacity="0.800003"
                 id="g494">
                <g
                   transform="translate(424.1268,253.9238)"
                   id="g492">
                  <path
                     d="m 0,0 c 0,21.691 -8.425,42.053 -23.72,57.347 l -0.027,0.018 -0.236,0.246 -78.192,78.201 c -17.696,17.687 -41.261,27.432 -66.355,27.432 -19.661,0 -38.459,-5.978 -54.363,-17.287 l -2.939,-2.084 0.346,20.089 c 0.064,4.013 -1.428,7.816 -4.221,10.7 -2.785,2.884 -6.533,4.513 -10.545,4.577 h -0.264 c -4.731,0 -8.99,-2.248 -11.755,-5.732 2.265,1.073 4.794,1.646 7.469,1.601 9.299,-0.155 16.705,-7.825 16.55,-17.123 l -0.282,-16.496 c 37.331,26.549 89.601,23.11 123.056,-10.345 l 78.337,-78.337 c 0.01,-0.009 0.01,-0.018 0.019,-0.027 0.036,-0.027 0.072,-0.064 0.1,-0.1 C -3.075,28.742 3.139,-6.333 -8.398,-36.048 -2.902,-24.993 0,-12.729 0,0"
                     style="fill:#ffffff;fill-opacity:1;fill-rule:nonzero;stroke:none"
                     id="path490" />
                </g>
              </g>
            </g>
          </g>
          <g
             id="g498"
             transform="translate(401.6902,312.554)">
            <path
               d="m 0,0 c -0.027,0.036 -0.064,0.073 -0.1,0.1 -0.009,0.009 -0.009,0.018 -0.018,0.027 l -78.338,78.338 c -33.454,33.454 -85.725,36.894 -123.056,10.345 l 0.283,16.495 c 0.154,9.298 -7.252,16.968 -16.55,17.123 -9.299,0.164 -16.96,-7.251 -17.124,-16.55 l -0.973,-57.384 c -0.009,-0.582 0.009,-1.155 0.064,-1.719 0.718,-8.507 7.77,-15.249 16.486,-15.404 l 57.383,-0.973 h 0.292 c 9.171,0 16.677,7.351 16.832,16.55 0.154,9.298 -7.252,16.959 -16.55,17.123 l -16.014,0.273 c 23.738,13.866 54.782,10.636 75.117,-9.69 l 31.135,-31.135 0.136,-0.136 C -88.455,20.79 -104.559,12.71 -117.269,0 c -3.485,-3.476 -6.615,-7.215 -9.381,-11.164 l -0.027,-0.027 c -9.663,-13.811 -14.876,-30.225 -14.876,-47.439 0,-22.146 8.625,-42.972 24.284,-58.63 15.667,-15.668 36.484,-24.293 58.639,-24.293 22.145,0 42.972,8.625 58.63,24.293 C 32.336,-84.934 32.336,-32.327 0,0 Z"
               style="fill:none;stroke:#3091b7;stroke-width:3;stroke-linecap:butt;stroke-linejoin:miter;stroke-miterlimit:10;stroke-dasharray:none;stroke-opacity:1"
               id="path500" />
          </g>
          <g
             id="g502"
             transform="translate(377.8796,219.1042)">
            <path
               d="m 0,0 c -9.299,-9.308 -21.663,-14.43 -34.82,-14.43 -13.156,0 -25.521,5.122 -34.828,14.43 -9.299,9.299 -14.421,21.663 -14.421,34.82 0,13.156 5.122,25.521 14.421,34.828 9.307,9.299 21.672,14.421 34.828,14.421 13.157,0 25.521,-5.122 34.82,-14.421 C 19.207,50.442 19.207,19.198 0,0 Z"
               style="fill:none;stroke:#3091b7;stroke-width:3;stroke-linecap:butt;stroke-linejoin:miter;stroke-miterlimit:10;stroke-dasharray:none;stroke-opacity:1"
               id="path504" />
          </g>
          <g
             id="g506">
            <g
               id="g508" />
            <g
               id="g520">
              <g
                 clip-path="url(#clipPath512)"
                 opacity="0.199997"
                 id="g518">
                <g
                   transform="translate(120.6613,206.1691)"
                   id="g516">
                  <path
                     d="m 0,0 c -9.308,9.299 -14.43,21.663 -14.43,34.82 0,13.156 5.122,25.521 14.43,34.828 9.299,9.299 21.663,14.421 34.82,14.421 13.156,0 25.521,-5.122 34.828,-14.421 C 78.947,60.341 84.069,47.976 84.069,34.82 84.069,21.663 78.947,9.299 69.648,0 60.341,-9.308 47.976,-14.43 34.82,-14.43 21.663,-14.43 9.299,-9.308 0,0 m 190.057,-102.148 12.437,12.438 c 6.578,6.569 6.578,17.232 0,23.81 -6.569,6.569 -17.232,6.569 -23.81,0 l -12.438,-12.437 -13.238,13.238 c -6.578,6.569 -17.232,6.569 -23.811,0 -6.578,-6.578 -6.578,-17.232 0,-23.811 l 6.296,-6.296 c -4.294,-0.919 -8.707,-1.41 -13.201,-1.41 -16.559,0 -32.127,6.442 -43.836,18.151 l -31.272,31.272 c 17.46,2.593 33.564,10.672 46.275,23.382 15.658,15.659 24.283,36.485 24.283,58.631 0,22.145 -8.625,42.971 -24.283,58.63 -15.668,15.667 -36.485,24.292 -58.639,24.292 -22.146,0 -42.972,-8.625 -58.631,-24.292 -15.667,-15.659 -24.292,-36.485 -24.292,-58.63 0,-22.146 8.625,-42.972 24.292,-58.631 0.028,-0.036 0.064,-0.063 0.092,-0.091 0.009,-0.009 0.018,-0.018 0.027,-0.027 l 78.337,-78.346 c 18.069,-18.07 42.089,-28.014 67.647,-28.014 13.929,0 27.404,2.957 39.705,8.58 l 16.013,-16.014 c 3.285,-3.284 7.597,-4.931 11.901,-4.931 4.313,0 8.616,1.647 11.91,4.931 6.569,6.579 6.569,17.233 0,23.811 z"
                     style="fill:#1f1e21;fill-opacity:1;fill-rule:nonzero;stroke:none"
                     id="path514" />
                </g>
              </g>
            </g>
          </g>
          <g
             id="g522"
             transform="translate(127.4957,285.8356)">
            <path
               d="m 0,0 c 9.302,9.302 21.669,14.425 34.824,14.425 13.155,0 25.522,-5.123 34.824,-14.425 9.302,-9.302 14.425,-21.669 14.425,-34.824 0,-13.155 -5.123,-25.522 -14.425,-34.825 -9.302,-9.301 -21.669,-14.424 -34.824,-14.424 -13.155,0 -25.522,5.123 -34.824,14.425 -9.302,9.302 -14.425,21.669 -14.425,34.824 0,13.155 5.123,25.522 14.425,34.824 m 202.5,-135.547 c -6.575,6.575 -17.236,6.575 -23.811,0 l -12.438,-12.438 -13.239,13.239 c -6.576,6.576 -17.236,6.575 -23.81,0.001 -6.575,-6.575 -6.575,-17.235 -0.001,-23.81 l 6.293,-6.292 c -4.291,-0.926 -8.706,-1.417 -13.2,-1.417 -16.558,0 -32.126,6.448 -43.835,18.158 l -31.272,31.271 c 17.456,2.594 33.563,10.669 46.271,23.377 15.662,15.662 24.287,36.485 24.287,58.634 0,22.149 -8.625,42.972 -24.287,58.634 C 77.796,39.471 56.973,48.097 34.824,48.097 12.675,48.097 -8.148,39.471 -23.81,23.81 -39.471,8.148 -48.097,-12.675 -48.097,-34.824 c 0,-22.149 8.626,-42.972 24.287,-58.634 0.031,-0.031 0.063,-0.061 0.094,-0.092 0.009,-0.009 0.016,-0.018 0.025,-0.027 l 78.34,-78.339 c 18.069,-18.069 42.092,-28.02 67.645,-28.02 13.93,0 27.403,2.963 39.707,8.581 l 16.01,-16.011 c 3.288,-3.288 7.596,-4.931 11.905,-4.931 4.309,0 8.618,1.644 11.905,4.931 6.575,6.575 6.575,17.234 0.001,23.809 l -11.761,11.761 12.439,12.439 c 6.574,6.575 6.574,17.235 0,23.81"
               style="fill:#ff77c3;fill-opacity:1;fill-rule:nonzero;stroke:none"
               id="path524" />
          </g>
          <g
             id="g526"
             transform="translate(127.4957,285.8356)">
            <path
               d="m 0,0 c 9.302,9.302 21.669,14.425 34.824,14.425 13.155,0 25.522,-5.123 34.824,-14.425 9.302,-9.302 14.425,-21.669 14.425,-34.824 0,-13.155 -5.123,-25.522 -14.425,-34.825 -9.302,-9.301 -21.669,-14.424 -34.824,-14.424 -13.155,0 -25.522,5.123 -34.824,14.425 -9.302,9.302 -14.425,21.669 -14.425,34.824 0,13.155 5.123,25.522 14.425,34.824 m 202.5,-135.547 c -6.575,6.575 -17.236,6.575 -23.811,0 l -12.438,-12.438 -13.239,13.239 c -6.576,6.576 -17.236,6.575 -23.81,0.001 -6.575,-6.575 -6.575,-17.235 -0.001,-23.81 l 6.293,-6.292 c -4.291,-0.926 -8.706,-1.417 -13.2,-1.417 -16.558,0 -32.126,6.448 -43.835,18.158 l -31.272,31.271 c 17.456,2.594 33.563,10.669 46.271,23.377 15.662,15.662 24.287,36.485 24.287,58.634 0,22.149 -8.625,42.972 -24.287,58.634 C 77.796,39.471 56.973,48.097 34.824,48.097 12.675,48.097 -8.148,39.471 -23.81,23.81 -39.471,8.148 -48.097,-12.675 -48.097,-34.824 c 0,-22.149 8.626,-42.972 24.287,-58.634 0.031,-0.031 0.063,-0.061 0.094,-0.092 0.009,-0.009 0.016,-0.018 0.025,-0.027 l 78.34,-78.339 c 18.069,-18.069 42.092,-28.02 67.645,-28.02 13.93,0 27.403,2.963 39.707,8.581 l 16.01,-16.011 c 3.288,-3.288 7.596,-4.931 11.905,-4.931 4.309,0 8.618,1.644 11.905,4.931 6.575,6.575 6.575,17.234 0.001,23.809 l -11.761,11.761 12.439,12.439 c 6.574,6.575 6.574,17.235 0,23.81"
               style="fill:#ff77c3;fill-opacity:1;fill-rule:nonzero;stroke:none"
               id="path528" />
          </g>
          <g
             id="g530"
             style="display:inline">
            <g
               id="g532" />
            <g
               id="g544">
              <g
                 clip-path="url(#clipPath536)"
                 opacity="0.699997"
                 id="g542">
                <g
                   transform="translate(162.3186,199.9415)"
                   id="g540">
                  <path
                     d="m 0,0 c -13.648,0 -26.467,5.313 -36.102,14.958 -9.654,9.644 -14.967,22.464 -14.967,36.111 0,5.896 0.991,11.646 2.911,17.042 -3.712,-6.997 -5.677,-14.849 -5.677,-22.992 0,-13.156 5.122,-25.521 14.43,-34.82 9.298,-9.307 21.663,-14.43 34.819,-14.43 12.42,0 24.138,4.568 33.237,12.92 C 20.262,3.066 10.363,0 0,0 m 116.905,-50.141 c -2.838,2.838 -6.614,4.394 -10.627,4.394 -4.003,0 -7.779,-1.556 -10.617,-4.385 -0.437,-0.437 -0.847,-0.901 -1.22,-1.383 6.26,2.984 13.976,1.892 19.162,-3.285 l 13.238,-13.238 3.985,3.976 z m 53.881,-11.419 c 0,4.013 -1.565,7.788 -4.394,10.627 -2.839,2.83 -6.606,4.386 -10.618,4.386 -4.013,0 -7.788,-1.556 -10.627,-4.386 l -1.538,-1.547 c 6.315,3.194 14.212,2.148 19.48,-3.12 4.094,-4.095 5.641,-9.772 4.631,-15.049 1.993,2.593 3.066,5.759 3.066,9.089 m -5.068,-37.385 -11.081,11.082 -3.986,-3.985 11.765,-11.765 c 4.094,-4.094 5.641,-9.78 4.622,-15.067 4.485,5.887 4.039,14.358 -1.32,19.735 M 81.103,51.069 c 0,21.664 -8.434,42.026 -23.747,57.348 C 42.035,123.738 21.663,132.173 0,132.173 c -19.716,0 -38.368,-6.988 -53.107,-19.799 14.029,10.181 30.861,15.668 48.521,15.668 22.155,0 42.972,-8.625 58.64,-24.293 15.658,-15.658 24.283,-36.484 24.283,-58.63 0,-10.327 -1.874,-20.371 -5.459,-29.725 5.386,10.964 8.225,23.101 8.225,35.675 M 0,0 c -13.648,0 -26.467,5.313 -36.102,14.958 -9.654,9.644 -14.967,22.464 -14.967,36.111 0,5.896 0.991,11.646 2.911,17.042 -3.712,-6.997 -5.677,-14.849 -5.677,-22.992 0,-13.156 5.122,-25.521 14.43,-34.82 9.298,-9.307 21.663,-14.43 34.819,-14.43 12.42,0 24.138,4.568 33.237,12.92 C 20.262,3.066 10.363,0 0,0 m 87.472,-82.186 c -17.05,0 -33.073,6.633 -45.119,18.688 l -32.008,31.999 c -2.166,-0.5 -4.367,-0.919 -6.578,-1.246 l 35.283,-35.42 c 11.71,-11.71 27.277,-18.152 43.837,-18.152 4.494,0 8.907,0.492 13.201,1.411 l 2.903,3.766 c -3.831,-0.691 -7.698,-1.046 -11.519,-1.046"
                     style="fill:#ffffff;fill-opacity:1;fill-rule:nonzero;stroke:none"
                     id="path538" />
                </g>
              </g>
            </g>
          </g>
          <g
             id="g546"
             transform="translate(127.4957,285.8356)"
             style="display:inline">
            <path
               d="m 0,0 c 9.302,9.302 21.669,14.425 34.824,14.425 13.155,0 25.522,-5.123 34.824,-14.425 9.302,-9.302 14.425,-21.669 14.425,-34.824 0,-13.155 -5.123,-25.522 -14.425,-34.825 -9.302,-9.301 -21.669,-14.424 -34.824,-14.424 -13.155,0 -25.522,5.123 -34.824,14.425 -9.302,9.302 -14.425,21.669 -14.425,34.824 0,13.155 5.123,25.522 14.425,34.824 z m 202.5,-135.547 c -6.575,6.575 -17.236,6.575 -23.811,0 l -12.438,-12.438 -13.239,13.239 c -6.576,6.576 -17.236,6.575 -23.81,0.001 -6.575,-6.575 -6.575,-17.235 -0.001,-23.81 l 6.293,-6.292 c -4.291,-0.926 -8.706,-1.417 -13.2,-1.417 -16.558,0 -32.126,6.448 -43.835,18.158 l -31.272,31.271 c 17.456,2.594 33.563,10.669 46.271,23.377 15.662,15.662 24.287,36.485 24.287,58.634 0,22.149 -8.625,42.972 -24.287,58.634 C 77.796,39.471 56.973,48.097 34.824,48.097 12.675,48.097 -8.148,39.471 -23.81,23.81 -39.471,8.148 -48.097,-12.675 -48.097,-34.824 c 0,-22.149 8.626,-42.972 24.287,-58.634 0.031,-0.031 0.063,-0.061 0.094,-0.092 0.009,-0.009 0.016,-0.018 0.025,-0.027 l 78.34,-78.339 c 18.069,-18.069 42.092,-28.02 67.645,-28.02 13.93,0 27.403,2.963 39.707,8.581 l 16.01,-16.011 c 3.288,-3.288 7.596,-4.931 11.905,-4.931 4.309,0 8.618,1.644 11.905,4.931 6.575,6.575 6.575,17.234 0.001,23.809 l -11.761,11.761 12.439,12.439 c 6.574,6.575 6.574,17.235 0,23.81 z"
               style="fill:none;stroke:#c45798;stroke-width:3;stroke-linecap:butt;stroke-linejoin:miter;stroke-miterlimit:10;stroke-dasharray:none;stroke-opacity:1"
               id="path548" />
          </g>
        </g>
      </g>
    </g>
  </g>
</svg>
