<svg width="1038" height="1038" viewBox="0 0 1038 1038" fill="none" xmlns="http://www.w3.org/2000/svg">
<g filter="url(#filter0_df_10_134)">
<path d="M720.763 487.663C721.257 486.774 721.584 486.127 721.977 485.523C722.621 484.539 723.204 483.476 724.001 482.634C726.264 480.286 729.316 480.286 731.648 482.55C732.173 483.064 732.591 483.677 733.092 484.202C733.503 484.628 733.967 484.996 734.573 485.542C735.782 484.375 736.9 483.365 737.94 482.279C740.497 479.629 743.028 479.141 746.115 481.046C747.862 482.122 749.412 482.038 750.985 480.987C752.488 479.988 753.876 478.825 755.383 477.859C756.599 477.084 757.492 476.255 757.204 474.646C757.135 474.228 757.306 473.755 757.396 473.317C758.767 466.392 758.711 459.441 757.758 452.476C757.251 448.788 756.562 445.14 755.055 441.697C754.801 441.107 754.434 440.556 754.091 439.934C753.756 440.181 753.567 440.307 753.396 440.439C750.553 442.579 747.381 441.563 746.39 438.157C746.122 437.245 745.976 436.291 745.865 435.341C745.063 428.63 744.379 421.903 743.461 415.215C742.552 408.602 740.661 402.24 738.12 396.071C737.36 394.231 736.306 392.565 734.862 391.186C733.389 389.777 731.822 389.658 730.12 390.7C729.684 390.959 729.249 391.235 728.776 391.406C726.768 392.119 724.757 391.315 723.969 389.453C723.008 387.169 722.137 384.857 722.149 382.306C722.153 381.189 721.969 380.061 721.828 378.945C720.986 372.587 720.259 366.199 719.249 359.863C718.254 353.644 717.073 347.449 715.77 341.287C714.921 337.25 713.374 333.428 711.215 329.888C710.795 329.191 710.209 328.6 709.713 327.98C708.447 328.83 708.385 328.88 707.792 330.464C705.795 335.806 704.273 341.266 703.747 346.977C703.223 352.577 702.348 358.161 702.598 363.808C702.932 371.337 703.351 378.873 703.754 386.411C704.099 392.814 704.59 399.223 704.773 405.629C704.951 411.652 704.763 417.678 704.813 423.7C704.832 425.957 703.732 427.784 702.849 429.711C702.715 430.001 702.419 430.226 702.185 430.468C701.585 431.124 700.893 431.245 700.047 430.959C698.518 430.461 697.408 429.5 696.628 428.115C696.341 427.597 696.039 427.089 695.604 426.342C694.963 427.753 695.032 428.981 694.995 430.179C694.851 434.793 695.846 439.246 696.849 443.699C698.118 449.312 699.177 454.951 699.145 460.727C699.137 462.357 699.089 464.009 698.812 465.604C698.446 467.645 696.886 469.001 695.052 469.197C693.268 469.388 691.622 468.435 690.687 466.626C690.327 465.929 690.069 465.169 689.7 464.473C689.433 463.978 689.071 463.538 688.756 463.066C688.282 463.842 688.133 464.492 688.045 465.142C687.731 467.458 687.993 469.744 688.458 472.022C689.353 476.488 690.223 480.966 691.134 485.43C691.221 485.846 691.412 486.282 691.683 486.606C692.176 487.209 692.77 487.723 693.445 488.414C694.56 487.787 695.643 487.114 696.782 486.544C700.561 484.654 704.063 486.2 705.263 490.244C705.395 490.687 705.561 491.127 705.807 491.863C706.715 490.879 707.389 490.138 708.065 489.405C708.904 488.489 709.676 487.506 710.578 486.676C713.267 484.198 715.874 484.108 718.798 486.273C719.372 486.704 719.968 487.106 720.763 487.663ZM340.045 452.859C339.708 451.196 339.46 449.77 339.131 448.37C338.327 444.967 337.451 441.59 336.673 438.192C335.707 433.965 334.89 429.71 333.858 425.5C333.073 422.316 333.067 419.145 333.552 415.955C333.942 413.425 335.216 411.423 337.36 410.028C338.203 409.478 339.117 409.022 340.036 408.6C344.005 406.736 347.961 404.832 351.988 403.089C355.699 401.479 358.411 398.913 360.465 395.448C363.975 389.524 365.488 383.323 363.704 376.53C363.095 374.194 362.575 371.821 361.866 369.505C359.961 363.248 357.341 357.259 354.48 351.395C351.972 346.236 349.207 341.196 346.49 336.14C344.464 332.371 342.335 328.665 340.261 324.919C336.687 318.47 333.233 311.956 329.517 305.594C326.931 301.17 323.848 297.064 320.47 293.192C319.624 292.224 318.733 291.244 317.729 290.45C315.287 288.523 312.581 288.838 310.538 291.167C310.315 291.425 310.082 291.676 309.914 291.97C308.237 294.765 306.368 297.464 304.936 300.381C300.78 308.825 297.192 317.513 294.224 326.455C291.925 333.395 289.502 340.299 287.914 347.465C286.292 354.832 284.554 362.17 282.984 369.547C281.78 375.223 281.062 380.975 280.959 386.794C280.913 388.872 280.98 390.961 280.858 393.04C280.665 396.39 281.017 399.662 281.744 402.93C282.101 404.548 282.797 405.739 284.484 406.209C287.461 407.028 290.431 407.865 293.403 408.719C296.427 409.575 299.484 410.359 302.459 411.366C304.596 412.086 306.562 413.212 308.213 414.811C312.164 418.637 315.139 423.106 316.903 428.315C317.947 431.399 318.822 434.554 319.629 437.718C321.014 443.171 321.219 448.73 320.831 454.321C320.784 454.967 320.789 455.614 320.77 456.478C327.071 454.312 333.299 453.12 340.045 452.859ZM680.706 502.234C680.596 502.24 680.484 502.237 680.374 502.242C680.22 502.645 680.014 503.038 679.93 503.458C679.523 505.504 679.045 507.534 678.784 509.596C677.89 516.521 677.195 523.464 676.214 530.374C674.826 540.149 671.538 549.26 666.109 557.549C665.336 558.72 664.451 559.821 663.547 560.898C662.843 561.745 661.873 562.234 660.76 562.331C657.833 562.589 655.931 561.43 654.784 558.752C654.749 558.671 654.601 558.647 654.417 558.542C652.322 559.786 650.351 561.262 648.663 563.094C645.693 566.324 642.695 569.541 639.813 572.862C634.78 578.671 629.245 583.946 623.058 588.51C617.534 592.59 611.878 596.49 606.321 600.514C603.5 602.557 600.308 603.82 597.138 605.123C596.773 605.271 596.373 605.338 595.988 605.395C594.095 605.668 592.752 604.958 591.715 603.358C590.49 601.483 590.194 599.533 590.872 597.402C591.161 596.513 591.317 595.581 591.577 594.465C590.747 594.373 590.145 594.193 589.564 594.258C587.893 594.46 586.189 594.606 584.574 595.048C580.773 596.08 577.002 597.219 573.247 598.408C566.385 600.593 559.523 600.808 552.651 598.578C550.954 598.032 549.298 597.269 547.724 596.418C545.757 595.352 545.111 593.813 545.485 591.771C545.856 589.772 547.241 588.447 549.391 588.116C550.169 587.993 550.965 588.021 551.747 587.931C553.001 587.799 553.471 587.202 553.073 586.008C552.854 585.345 552.376 584.731 551.877 584.223C551.377 583.706 550.709 583.346 550.112 582.936C544.728 579.247 538.738 576.769 532.73 574.353C521.792 569.957 510.495 566.646 499.176 563.423C496.806 562.749 494.498 561.82 492.166 560.971C491.594 560.762 491.034 560.448 490.538 560.093C489.093 559.047 488.37 557.637 488.751 555.85C489.123 554.064 490.31 552.994 492.066 552.653C493.048 552.461 494.076 552.503 495.09 552.426C495.512 552.39 495.921 552.322 496.609 552.235C496.234 551.558 496.032 551.037 495.692 550.637C494.804 549.614 493.96 548.527 492.917 547.695C489.697 545.141 486.526 542.504 483.097 540.259C475.745 535.428 467.904 531.452 460.03 527.557C456.502 525.81 452.871 524.263 449.301 522.589C447.443 521.714 446.564 520.153 446.846 518.395C447.119 516.699 448.332 515.634 450.328 515.229C450.91 515.113 451.522 514.891 452.008 514.557C453.618 513.459 455.36 512.737 457.262 512.336C458.184 512.143 459.086 511.783 459.971 511.432C460.685 511.147 461.051 510.529 460.788 509.795C460.473 508.914 460.182 507.893 459.536 507.301C457.942 505.813 456.273 504.335 454.41 503.222C450.354 500.799 446.183 498.553 442.009 496.341C439.927 495.247 437.77 494.231 435.548 493.445C429.551 491.326 423.463 489.491 417.235 488.109C414.771 487.566 412.347 486.797 409.932 486.035C407.951 485.406 406.873 483.887 406.879 482.036C406.882 480.296 407.975 478.82 409.851 478.141C410.585 477.878 411.372 477.762 412.14 477.563C412.471 477.479 412.787 477.354 413.433 477.136C409.146 474.572 405.433 471.628 400.973 470.126C392.853 467.396 384.589 465.144 376.096 463.919C366.961 462.604 357.801 461.497 348.582 460.806C337.194 459.954 326.419 461.94 316.068 466.747C310.162 469.485 304.746 472.997 299.336 476.551C296.69 478.291 294.343 480.377 291.981 482.473C288.397 485.635 285.591 489.424 282.693 493.165C282.356 493.6 282.168 494.144 281.898 494.638C281.467 495.417 281.076 496.234 280.588 496.969C278.447 500.214 276.266 503.481 275.052 507.181C273.57 511.664 272.337 516.236 271.21 520.829C269.693 527.005 268.456 533.24 267.806 539.589C266.674 550.654 266.686 561.728 267.315 572.827C267.488 575.968 268.378 578.909 269.469 581.816C269.572 582.093 269.805 582.319 270.117 582.766C271.35 580.982 272.506 579.396 273.579 577.752C274.809 575.874 276.46 574.763 278.747 574.782C279.183 574.787 279.84 574.994 280.026 575.321C281.075 577.158 282.293 578.906 282.169 581.241C282.013 584.271 282.15 587.323 282.071 590.36C281.89 597.528 282.133 604.676 283.539 611.721C284.366 615.855 285.501 619.933 286.511 624.026C287.933 629.773 289.592 635.439 291.761 640.956C293.702 645.879 295.683 650.779 297.648 655.691C299.35 659.936 301.469 663.967 303.988 667.794C304.43 668.463 304.84 669.213 305.882 669.568C306.173 668.422 306.455 667.407 306.684 666.38C306.821 665.775 306.844 665.149 306.973 664.545C307.406 662.563 308.644 661.291 310.373 661.005C312.187 660.717 313.879 661.561 314.803 663.415C315.318 664.458 315.643 665.62 315.998 666.743C316.922 669.688 317.718 672.691 318.741 675.607C322.988 687.606 329.107 698.697 335.513 709.632C336.479 711.284 337.431 712.954 338.454 714.574C341.395 719.251 344.462 723.837 348.889 727.304C349.399 727.7 349.932 728.077 350.673 728.614C350.682 727.94 350.712 727.569 350.691 727.197C350.625 726.131 350.534 725.068 350.459 723.994C350.293 721.867 350.093 719.735 349.987 717.599C349.873 715.269 351.072 713.413 352.986 713.112C355.387 712.742 357.57 713.081 359.076 715.364C360.413 717.379 361.892 719.308 363.322 721.259C367.832 727.419 372.863 733.121 378.737 737.993C382.811 741.368 387.071 744.525 391.35 747.636C393.986 749.546 396.784 751.249 399.572 752.945C401.898 754.349 404.451 755.264 407.096 755.886C407.825 756.059 408.6 756.32 409.312 755.88C409.329 755.742 409.347 755.68 409.332 755.631C409.302 755.464 409.264 755.298 409.211 755.143C408.546 753.317 408.773 751.66 410.31 750.392C411.901 749.075 413.684 749.217 415.346 750.236C416.981 751.232 418.537 752.35 420.064 753.505C422.862 755.617 425.827 757.435 429.102 758.728C430.718 759.369 432.304 760.116 433.888 760.846C441.279 764.231 448.91 766.937 456.787 768.956C458.09 769.287 459.435 769.476 460.766 769.683C461.183 769.742 461.614 769.645 462.225 769.619C461.504 768.295 460.592 767.42 459.623 766.562C458.883 765.896 458.134 765.163 457.603 764.326C456.616 762.788 456.583 760.421 458.265 758.948C460.061 757.366 461.439 757.005 463.796 758.184C469.817 761.178 476.121 763.437 482.465 765.607C496.203 770.299 510.297 773.011 524.861 772.952C525.577 772.947 526.282 772.858 527.103 772.806C526.995 772.428 526.944 772.221 526.885 772.024C526.164 769.616 526.469 768.717 528.487 767.277C528.714 767.113 528.949 766.947 529.147 766.76C530.277 765.714 531.608 765.512 533.08 765.694C537.384 766.218 541.684 766.717 545.992 767.207C552.885 767.985 559.8 768.454 566.712 767.551C572.685 766.774 578.668 766.012 584.509 764.451C586.208 763.998 587.951 763.617 589.777 762.679C588.823 762.279 588.097 762.004 587.385 761.693C586.158 761.157 585.162 760.361 584.612 759.109C584.074 757.88 584.113 756.699 585.037 755.636C586.641 753.814 588.533 752.724 591.082 752.855C592.987 752.956 594.918 752.918 596.817 752.764C609.266 751.752 621.502 749.65 633.385 745.7C638.272 744.079 642.99 742.138 647.13 738.991C647.512 738.705 647.872 738.386 648.569 737.821C647.277 737.788 646.403 737.753 645.531 737.734C644.736 737.724 643.951 737.78 643.166 737.708C641.821 737.596 640.674 737.015 639.831 735.936C638.609 734.359 638.827 732.567 640.386 731.339C640.79 731.024 641.338 730.835 641.604 730.444C642.816 728.629 644.688 728.052 646.648 727.703C652.474 726.638 658.191 725.117 663.824 723.326C671.417 720.921 678.559 717.447 685.543 713.653C689.254 711.634 692.342 708.867 695.079 705.683C695.615 705.062 696.027 704.345 696.497 703.672C696.424 703.57 696.353 703.477 696.281 703.375C695.772 703.533 695.266 703.716 694.745 703.841C693.332 704.198 691.924 704.665 690.489 704.845C688.473 705.09 686.825 704.053 686.126 702.359C685.454 700.746 685.899 698.926 687.399 697.637C688.245 696.908 689.198 696.285 690.168 695.72C694.981 692.906 699.847 690.179 704.639 687.334C706.71 686.101 708.701 684.717 710.673 683.309C715.225 680.051 719.171 676.101 723.089 672.138C724.632 670.58 726.048 668.892 727.437 667.191C728.531 665.852 729.328 664.327 729.794 662.538C729.334 662.476 729.064 662.434 728.788 662.409C727.128 662.225 725.909 661.415 725.319 659.844C724.703 658.199 725.136 656.695 726.313 655.473C727.081 654.668 728.014 654.014 728.898 653.314C730.036 652.403 731.282 651.599 732.333 650.597C738.592 644.634 743.446 637.611 747.681 630.13C748.741 628.257 749.265 626.187 749.611 623.918C748.52 624.056 747.584 624.276 746.654 624.273C743.942 624.265 742.544 622.573 742.958 619.904C743.012 619.522 743.078 619.096 742.967 618.752C742.39 616.948 743.009 615.429 744.023 613.997C747.552 608.975 751.053 603.93 754.629 598.944C757.698 594.67 760.375 590.198 762.479 585.371C762.644 584.984 762.736 584.563 762.866 584.172C762.65 584.08 762.556 584.015 762.443 583.995C758.931 583.26 757.562 580.849 758.848 577.515C759.264 576.414 759.849 575.377 760.428 574.349C764.662 566.936 767.289 558.94 769.129 550.659C769.3 549.922 769.226 549.13 769.258 548.367C768.758 548.182 768.446 548.077 768.133 547.963C765.677 547.078 764.458 545.048 765.069 542.516C765.319 541.453 765.832 540.382 766.46 539.476C767.486 538.008 768.709 536.678 769.827 535.267C770.452 534.472 771.139 533.695 771.608 532.817C773.98 528.358 775.709 523.664 776.382 518.643C776.556 517.316 776.453 515.956 776.419 514.605C776.412 514.273 776.201 513.95 776.04 513.485C775.298 514.303 774.748 515.011 774.091 515.614C772.692 516.898 770.945 517.178 769.404 516.383C767.782 515.555 767.069 514.153 767.118 512.373C767.14 511.535 767.299 510.696 767.415 509.854C767.992 505.902 768.459 501.955 768.464 497.93C768.48 492.429 767.886 487.03 766.493 481.722C766.292 480.938 765.934 480.19 765.701 479.562C764.525 480.307 763.498 480.957 762.481 481.613C762.291 481.731 762.133 481.896 761.992 482.067C759.833 484.76 757.027 486.656 754.036 488.226C750.644 490 747.086 490.456 743.505 488.562C743.368 488.485 743.19 488.499 743.207 488.497C741.526 489.774 740.034 491.062 738.384 492.114C735.708 493.815 732.934 493.66 730.242 492.047C729.577 491.644 728.955 491.168 728.18 490.635C726.808 492.879 725.098 494.672 722.391 495.183C719.668 495.696 717.267 494.983 715.017 493.297C714.484 493.935 714.055 494.526 713.539 495.035C712.415 496.131 711.325 497.291 710.078 498.224C708.357 499.523 706.31 499.994 704.16 499.778C701.751 499.536 699.916 498.377 698.828 496.16C698.633 495.767 698.439 495.374 698.247 494.997C697.149 495.357 696.153 495.772 695.125 496.004C694.038 496.243 692.919 496.298 691.711 496.45C691.656 496.832 691.608 497.265 691.535 497.7C691.147 500.034 690.855 502.39 690.316 504.683C690.046 505.86 689.507 507.062 688.774 508.015C686.9 510.468 683.327 510.124 681.9 507.388C681.439 506.508 681.3 505.468 681.074 504.482C680.904 503.744 680.826 502.987 680.706 502.234ZM347.959 452.938C349.079 453.027 350.188 453.101 351.3 453.2C364.089 454.345 376.873 455.525 389.369 458.677C393.78 459.784 398.162 461.066 402.518 462.411C404.389 462.986 406.235 463.768 407.942 464.73C411.172 466.549 414.314 468.55 417.469 470.515C418.181 470.954 418.846 471.493 419.463 472.063C422.099 474.511 423.575 477.301 421.853 481.031C422.352 481.198 422.762 481.343 423.18 481.478C428.556 483.138 433.955 484.718 439.295 486.493C441.467 487.226 443.538 488.304 445.568 489.387C449.937 491.72 454.272 494.124 458.571 496.576C461.171 498.065 463.517 499.902 465.524 502.165C467.431 504.312 468.466 506.774 468.665 509.648C468.895 513.038 467.679 515.707 464.856 517.596C463.842 518.278 462.743 518.826 461.493 519.537C462.221 519.898 462.767 520.17 463.313 520.442C471.613 524.608 479.889 528.853 487.71 533.889C491.458 536.299 495.054 538.925 498.289 542.005C499.705 543.362 501.032 544.832 502.249 546.367C504.408 549.097 504.862 552.16 503.715 555.451C503.62 555.71 503.551 555.975 503.435 556.339C503.884 556.521 504.275 556.711 504.691 556.837C506.786 557.495 508.876 558.178 510.994 558.747C519.486 561.047 527.761 563.996 535.926 567.224C542.896 569.971 549.785 572.95 555.866 577.437C556.9 578.202 557.936 579.044 558.718 580.045C561.191 583.23 561.622 586.791 560.273 590.576C560.121 590.996 559.961 591.417 559.809 591.836C559.799 591.889 559.824 591.954 559.838 592.063C561.24 592.501 562.685 592.464 564.15 592.314C568.326 591.891 572.261 590.509 576.255 589.316C579.115 588.461 581.993 587.682 584.881 586.918C587.026 586.349 589.219 586.363 591.42 586.504C596.55 586.822 599.531 590.932 599.338 594.751C599.324 594.914 599.396 595.076 599.457 595.426C599.893 595.235 600.307 595.132 600.637 594.911C608.881 589.21 617.237 583.649 624.785 577.029C627.451 574.698 629.897 572.114 632.316 569.516C635.772 565.816 639.121 562.001 642.501 558.233C644.661 555.821 647.184 553.85 649.908 552.118C653.273 549.989 656.659 549.324 660.229 552.081C660.635 551.442 660.991 550.885 661.33 550.331C665.076 544.045 667.265 537.187 668.341 530.009C669.426 522.778 670.173 515.497 671.048 508.224C671.452 504.857 672.171 501.56 673.358 498.384C673.821 497.124 674.389 495.875 675.099 494.737C676.677 492.169 679.142 491.227 682.076 491.916C682.568 492.024 683.047 492.177 683.77 492.368C683.761 491.687 683.79 491.103 683.751 490.52C683.521 486.456 682.741 482.487 681.841 478.525C681.171 475.565 680.597 472.568 680.218 469.554C679.837 466.524 680.068 463.477 681.081 460.553C681.432 459.545 681.86 458.545 682.421 457.647C684.068 455.018 686.649 453.978 689.688 454.618C690.012 454.688 690.327 454.751 690.879 454.869C690.805 454.077 690.799 453.421 690.677 452.789C689.946 449.146 689.174 445.517 688.451 441.874C687.584 437.557 686.962 433.219 687.206 428.789C687.345 426.23 687.906 423.781 688.808 421.391C690.015 418.178 692.765 416.178 696.356 416.937C696.505 416.969 696.677 416.913 697.007 416.889C697.029 416.119 697.068 415.347 697.081 414.569C697.192 405.15 696.482 395.775 695.924 386.39C695.497 379.136 695.13 371.875 694.788 364.62C694.497 358.577 695.374 352.601 695.924 346.605C696.522 340.042 698.222 333.765 700.51 327.62C701.168 325.866 702.001 324.218 703.349 322.872C707.112 319.099 712.297 319.171 715.879 323.112C717.718 325.123 718.998 327.502 720.111 329.98C722.465 335.209 723.906 340.698 724.919 346.309C726.987 357.73 728.594 369.217 729.892 380.752C729.938 381.19 730.043 381.62 730.133 382.129C730.706 382.142 731.203 382.165 731.698 382.162C735.397 382.157 738.509 383.505 740.993 386.245C742.857 388.313 744.366 390.621 745.399 393.203C748.337 400.498 750.475 408.006 751.443 415.83C751.982 420.188 752.505 424.547 753.037 428.914C753.113 429.518 753.189 430.123 753.265 430.727C757.776 431.405 760.253 434.35 761.997 438.053C763.963 442.222 764.885 446.71 765.456 451.243C766.23 457.395 766.742 463.572 765.799 469.762C765.777 469.927 765.84 470.089 765.873 470.349C769.633 471.232 771.871 473.841 773.269 477.297C773.651 478.23 773.946 479.216 774.188 480.192C775.603 485.956 776.424 491.796 776.244 497.753C776.18 499.825 776.212 501.91 776.198 503.966C776.319 504.045 776.402 504.162 776.496 504.167C779.359 504.217 781.186 505.794 782.476 508.19C784.247 511.489 784.677 515.041 784.265 518.683C783.487 525.44 781.223 531.71 777.871 537.597C777.348 538.524 776.613 539.324 775.941 540.151C775.456 540.766 774.904 541.33 774.359 541.944C774.495 542.208 774.557 542.431 774.694 542.575C777.011 545.132 777.55 548.193 776.924 551.418C776.304 554.557 775.521 557.683 774.558 560.737C773.024 565.56 771.431 570.381 769.06 574.781C769.105 575.005 769.089 575.152 769.158 575.22C771.894 578.065 772.173 581.432 770.988 584.958C770.219 587.246 769.237 589.475 768.172 591.647C765.932 596.209 763.229 600.48 760.187 604.563C757.494 608.167 754.951 611.872 752.24 615.675C752.686 615.9 752.952 616.046 753.241 616.172C756.161 617.424 757.576 619.727 757.513 622.822C757.425 627.071 756.211 631.043 754.08 634.705C749.762 642.129 744.955 649.197 738.773 655.227C738.332 655.649 737.931 656.125 737.482 656.617C738.807 659.835 738.112 662.915 736.945 665.978C735.878 668.747 734.374 671.23 732.43 673.461C726.781 679.936 720.621 685.869 713.616 690.843C710.869 692.8 707.872 694.388 704.988 696.14C704.473 696.452 703.949 696.757 703.346 697.114C705.754 700.87 705.042 704.43 703.066 707.901C702.486 708.921 701.771 709.88 701.006 710.778C697.757 714.572 694.071 717.866 689.676 720.278C681.964 724.514 674.05 728.298 665.636 730.959C663.119 731.753 660.56 732.425 658.018 733.162C657.376 733.345 656.737 733.554 655.999 733.783C656.181 734.28 656.317 734.689 656.478 735.087C657.52 737.676 657.148 740.076 655.378 742.2C654.695 743.01 653.862 743.704 653.025 744.372C647.651 748.62 641.489 751.288 635.01 753.399C624.141 756.941 612.967 758.935 601.645 760.231C601.031 760.3 600.428 760.385 599.899 760.451C599.777 760.637 599.661 760.728 599.672 760.821C599.825 765.15 597.712 768.349 593.542 769.837C591.266 770.652 588.952 771.369 586.607 771.98C579.563 773.804 572.371 774.854 565.136 775.559C558.608 776.201 552.089 775.751 545.593 775.016C542.912 774.714 540.231 774.48 537.527 774.206C537.402 774.495 537.281 774.689 537.231 774.9C536.744 776.923 535.394 778.192 533.596 779.083C531.117 780.316 528.468 780.743 525.733 780.763C517.323 780.807 508.968 780.135 500.711 778.548C491.291 776.732 482.128 773.979 473.159 770.597C472.479 770.342 471.801 770.103 470.952 769.792C470.908 770.326 470.851 770.683 470.845 771.042C470.778 773.693 469.482 775.527 467.077 776.538C464.566 777.587 461.929 777.705 459.263 777.393C457.983 777.247 456.707 776.998 455.456 776.678C447.189 774.606 439.17 771.795 431.398 768.305C429.193 767.312 426.933 766.428 424.769 765.353C422.049 763.998 419.414 762.505 416.543 760.965C416.71 760.935 416.571 760.919 416.51 760.978C413.775 763.632 410.438 764.291 406.818 763.774C403.041 763.235 399.495 761.89 396.214 760.001C392.996 758.146 389.847 756.155 386.83 754.002C382.7 751.06 378.673 747.986 374.704 744.835C369.201 740.472 364.562 735.249 360.06 729.898C359.71 729.481 359.36 729.073 358.82 728.442C358.679 729.287 358.59 729.869 358.492 730.444C357.553 735.721 353.036 738.174 348.114 736.056C347.438 735.766 346.766 735.441 346.176 735.021C343.242 732.917 340.497 730.611 338.221 727.768C332.589 720.751 328.164 712.961 323.908 705.089C320.642 699.054 317.671 692.854 314.709 686.661C313.4 683.918 312.447 681.02 311.341 678.192C311.131 677.672 310.929 677.152 310.742 676.681C310.587 676.667 310.524 676.64 310.484 676.662C306.094 678.639 302.168 677.862 299.029 674.122C297.555 672.372 296.268 670.41 295.187 668.389C293.428 665.115 291.797 661.773 290.335 658.359C288.171 653.285 286.169 648.148 284.175 643.002C281.993 637.384 280.326 631.591 278.882 625.736C277.864 621.644 276.729 617.566 275.893 613.433C274.419 606.056 274.034 598.584 274.248 591.071C274.26 590.694 274.23 590.314 274.2 589.738C273.618 590.059 273.195 590.291 272.772 590.523C269.823 592.156 266.944 591.64 264.736 589.062C263.246 587.322 262.421 585.235 261.594 583.13C259.398 577.54 259.266 571.674 259.169 565.82C259.076 560.136 259.093 554.446 259.283 548.77C259.63 538.716 261.13 528.816 263.579 519.069C264.656 514.755 266.033 510.515 267.022 506.178C268.496 499.735 272.231 494.516 275.873 489.24C277.409 487.017 279.086 484.888 280.838 482.826C284.455 478.568 288.439 474.656 293.023 471.445C299.122 467.19 305.295 463.054 312.104 459.981C312.258 459.911 312.389 459.8 312.53 459.706C312.91 454.661 313.623 449.618 312.894 444.568C312.002 438.362 310.581 432.283 307.593 426.698C306.77 425.165 305.698 423.765 304.637 422.381C303.28 420.607 301.579 419.219 299.413 418.536C297.051 417.793 294.696 416.964 292.282 416.483C288.506 415.747 284.853 414.698 281.256 413.351C277.284 411.873 275.177 408.949 274.182 404.973C272.933 399.988 273.074 394.94 273.083 389.866C273.099 380.911 274.28 372.134 276.29 363.44C277.678 357.459 279.031 351.473 280.358 345.483C282.015 337.984 284.559 330.758 286.979 323.496C289.986 314.455 293.728 305.705 297.786 297.094C299.549 293.351 301.711 289.864 304.198 286.584C306.027 284.18 308.404 282.542 311.351 281.771C316.122 280.523 320.15 282.037 323.628 285.214C326.547 287.883 328.907 291.056 331.251 294.231C337.295 302.424 341.965 311.42 346.73 320.362C348.929 324.485 351.271 328.53 353.478 332.652C356.217 337.756 359.08 342.818 361.53 348.061C364.208 353.829 366.678 359.708 368.853 365.676C370.233 369.459 371.095 373.469 371.867 377.439C372.669 381.507 372.402 385.616 371.359 389.661C369.947 395.177 367.237 400.002 363.649 404.35C362.702 405.501 361.509 406.521 360.257 407.352C358.525 408.491 356.671 409.474 354.797 410.375C350.994 412.201 347.169 413.995 343.295 415.659C341.789 416.3 341.206 417.218 341.049 418.815C340.784 421.594 341.629 424.173 342.214 426.794C343.858 434.099 345.559 441.388 347.212 448.692C347.504 450.002 347.682 451.344 347.959 452.938Z" fill="#F950EC"/>
</g>
<path d="M622.882 699.418C625.258 699.059 627.607 699.232 629.889 699.952C630.741 700.219 631.586 700.565 632.359 701.014C636.705 703.57 638.003 708.463 635.538 713.003C634.417 715.071 632.905 716.872 630.874 718.015C626.708 720.346 622.443 722.503 618.199 724.682C617.614 724.986 616.9 725.067 616.233 725.126C614.191 725.289 612.487 724.079 612.04 722.226C611.598 720.405 612.477 718.717 614.326 717.828C617.155 716.458 620.003 715.102 622.81 713.691C624.013 713.088 625.229 712.449 626.307 711.666C627.158 711.047 627.919 710.252 628.528 709.4C629.152 708.528 628.911 707.97 627.913 707.558C626.582 707.01 625.157 706.865 623.768 707.21C621.377 707.792 618.989 708.468 616.634 709.199C615.18 709.638 613.792 710.256 612.364 710.768C610.928 711.281 609.486 711.275 608.078 710.659C606.158 709.826 605.658 708.499 606.489 706.562C607.069 705.21 608.07 704.223 609.406 703.654C613.75 701.794 618.173 700.147 622.882 699.418Z" fill="#0EA1EF"/>
<path d="M485.772 745.946C483.444 744.448 481.383 742.772 478.704 742.086C476.908 741.63 475.125 741.086 473.39 740.443C471.619 739.78 470.353 738.532 469.811 736.665C469.448 735.406 469.62 734.804 470.654 734.009C472.093 732.907 473.73 732.633 475.452 733.039C481.146 734.386 486.533 736.403 491.155 740.136C492.664 741.353 494.009 742.693 494.893 744.432C496.981 748.56 494.845 752.998 490.321 753.636C483.844 754.544 477.404 754.323 471.132 752.247C470.224 751.943 469.29 751.634 468.501 751.12C467.729 750.612 466.979 749.938 466.466 749.176C465.563 747.832 465.729 746.097 466.714 744.916C467.751 743.668 469.105 743.251 470.65 743.67C471.462 743.892 472.199 744.328 472.995 744.62C476.972 746.072 481.1 746.423 485.29 746.245C485.375 746.243 485.465 746.146 485.772 745.946Z" fill="#0EA1EF"/>
<path d="M358.105 689.413C358.388 687.186 358.147 685.409 357.33 683.798C356.092 681.344 354.726 678.958 353.344 676.574C352.736 675.542 352.166 674.531 352.164 673.295C352.174 670.463 354.801 668.777 357.344 670.009C357.988 670.32 358.65 670.765 359.07 671.326C362.426 675.705 365.107 680.415 365.917 685.974C366.307 688.594 366.074 691.147 365.017 693.591C363.293 697.577 359.871 698.979 355.898 697.219C354.788 696.728 353.717 696.01 352.821 695.194C348.209 690.931 344.917 685.7 342.04 680.187C341.57 679.3 341.414 678.126 341.473 677.104C341.555 675.585 342.504 674.519 343.977 674.027C345.459 673.542 346.785 673.92 347.838 675.033C348.36 675.59 348.733 676.319 349.116 676.995C351.262 680.835 353.541 684.581 356.511 687.857C356.916 688.301 357.376 688.703 358.105 689.413Z" fill="#0EA1EF"/>
<path d="M407.405 725.333C405.954 722.744 404.304 720.342 402.345 718.184C401.177 716.899 399.878 715.724 398.716 714.42C398.099 713.714 397.504 712.919 397.157 712.058C396.621 710.711 396.889 709.381 397.886 708.292C398.861 707.231 400.146 706.942 401.449 707.341C402.381 707.633 403.325 708.153 404.055 708.803C408.007 712.365 411.337 716.465 414.123 720.991C414.82 722.123 415.356 723.403 415.739 724.685C417.187 729.55 413.638 734.013 408.546 733.724C407.222 733.643 405.876 733.309 404.617 732.862C401.295 731.669 398.277 729.908 395.802 727.38C393.766 725.292 391.904 723.028 389.981 720.823C389.722 720.531 389.532 720.171 389.352 719.827C388.497 718.11 388.845 716.199 390.203 715.065C391.559 713.914 393.489 713.876 395.026 715.046C395.649 715.522 396.169 716.131 396.694 716.712C398.121 718.298 399.48 719.952 400.954 721.497C402.721 723.347 404.877 724.627 407.405 725.333Z" fill="#0EA1EF"/>
<path d="M506.471 596.466C507.496 594.112 509.298 592.64 511.781 592.66C517.261 592.704 522.684 593.25 527.724 595.694C530.266 596.926 532.291 598.786 533.962 601.023C536.701 604.702 535.766 608.793 531.726 610.973C530.21 611.794 528.58 612.196 526.856 612.182C523.654 612.142 520.449 612.084 517.241 612.07C515.775 612.067 514.313 612.174 512.855 612.179C512.182 612.178 511.486 612.138 510.857 611.952C509.284 611.511 508.284 610.204 508.172 608.633C508.061 607.078 508.887 605.575 510.39 604.985C511.308 604.623 512.347 604.407 513.333 604.385C516.821 604.321 520.315 604.376 523.803 604.381C524.519 604.376 525.232 604.355 526.103 604.023C525.641 603.672 525.231 603.195 524.719 602.987C523.157 602.365 521.592 601.649 519.966 601.334C517.371 600.833 514.726 600.612 512.103 600.302C509.575 599.998 507.683 598.786 506.471 596.466Z" fill="#0EA1EF"/>
<path d="M461.121 560.972C460.735 560.483 460.562 560.19 460.33 559.972C457.44 557.266 454.436 554.736 450.736 553.181C449.863 552.813 448.982 552.387 448.215 551.844C446.531 550.657 445.749 548.581 446.32 547.154C446.91 545.673 449.056 544.567 451.074 545.158C453.208 545.784 455.323 546.669 457.267 547.755C460.771 549.719 463.817 552.311 466.596 555.219C467.805 556.49 468.748 557.958 469.318 559.642C470.694 563.733 468.845 567.333 464.655 568.389C463.208 568.75 461.636 568.862 460.147 568.751C454.52 568.351 449.188 566.83 444.218 564.13C443.395 563.688 442.596 563.098 441.98 562.399C440.917 561.203 440.846 559.421 441.606 558.141C442.387 556.823 443.897 556.087 445.519 556.438C446.491 556.648 447.453 557.038 448.345 557.489C452.045 559.385 455.972 560.503 460.101 560.93C460.316 560.945 460.538 560.943 461.121 560.972Z" fill="#0EA1EF"/>
<path d="M542.576 648.889C541.635 647.78 540.639 647.385 539.592 647.201C536.994 646.744 534.397 646.167 531.777 646.01C528.658 645.823 526.308 644.558 524.468 641.993C526.07 639.685 528.23 638.28 531.05 638.198C535.427 638.082 539.681 638.894 543.787 640.355C546.234 641.233 548.162 642.866 549.58 645.058C551.347 647.786 551.225 650.479 549.227 653.032C546.775 656.18 543.391 657.74 539.58 658.424C537.044 658.87 534.455 659.094 531.89 659.382C530.159 659.583 528.423 659.742 526.684 659.884C526.068 659.936 525.443 659.98 524.829 659.913C523.006 659.724 521.642 658.438 521.385 656.731C521.111 654.958 522.083 653.198 523.897 652.637C525.275 652.208 526.756 652.048 528.201 651.874C531.158 651.528 534.13 651.29 537.085 650.927C538.193 650.788 539.287 650.471 540.349 650.099C541.06 649.856 541.699 649.375 542.576 648.889Z" fill="#0EA1EF"/>
<path d="M430.655 510.064C429.173 508.315 427.561 506.685 425.194 506.172C423.327 505.768 421.415 505.608 419.543 505.238C418.459 505.024 417.328 504.775 416.36 504.265C415.046 503.578 414.229 502.376 414.398 500.803C414.56 499.308 415.589 498.343 416.916 497.911C417.957 497.576 419.135 497.453 420.225 497.512C421.961 497.618 423.686 497.912 425.41 498.19C430.628 499.009 434.487 501.959 437.452 506.148C438.313 507.361 438.956 508.815 439.333 510.251C440.12 513.256 438.755 515.892 435.923 517.169C433.566 518.224 431.032 518.552 428.488 518.326C426.263 518.12 424.047 517.657 421.84 517.261C419.956 516.927 418.102 516.486 416.22 516.169C413.572 515.718 412.012 514.029 412.267 511.789C412.509 509.644 414.357 508.201 416.935 508.431C418.892 508.602 420.811 509.077 422.748 509.43C424.625 509.782 426.491 510.179 428.371 510.479C429.075 510.587 429.805 510.495 430.521 510.49C430.563 510.349 430.613 510.206 430.655 510.064Z" fill="#0EA1EF"/>
<path d="M749.703 533.016C747.89 530.268 747.176 527.502 747.678 524.377C748.155 521.393 748.448 518.363 748.759 515.348C748.843 514.528 748.72 513.682 748.675 512.443C748.224 512.994 747.946 513.225 747.813 513.523C746.342 516.872 744.896 520.225 744.518 523.931C744.447 524.588 744.26 525.268 743.995 525.872C743.306 527.443 741.781 528.334 740.228 528.188C738.578 528.02 737.215 526.811 736.886 525.078C736.755 524.37 736.728 523.615 736.809 522.905C737.399 517.562 739.35 512.67 741.937 508.021C742.91 506.27 744.37 504.927 746.174 504.018C749.052 502.564 752.001 503.165 754.084 505.623C755.277 507.042 755.904 508.703 756.234 510.511C756.814 513.704 756.636 516.898 756.279 520.089C756.054 522.096 755.683 524.095 755.31 526.078C754.703 529.317 752.647 531.409 749.703 533.016Z" fill="#0EA1EF"/>
<path d="M602.439 624.69C600.941 624.64 599.424 624.438 597.947 624.564C595.146 624.797 592.357 625.199 589.573 625.567C588.08 625.763 586.653 625.67 585.309 624.952C583.034 623.746 582.71 621.988 584.362 619.998C585.184 619.016 586.232 618.33 587.463 618.081C592.385 617.087 597.337 616.319 602.373 616.905C603.808 617.065 605.269 617.427 606.599 617.968C610.249 619.461 611.791 622.976 610.484 626.688C609.592 629.221 608.245 631.531 606.013 633.099C602.333 635.702 598.527 638.117 594.052 639.148C593.033 639.379 591.921 639.493 590.897 639.349C589.232 639.124 588.062 637.753 587.853 636.16C587.654 634.582 588.456 633.023 590.021 632.314C591.037 631.854 592.137 631.579 593.214 631.265C596.183 630.397 598.661 628.61 601.186 626.928C601.791 626.519 602.184 625.779 602.682 625.196C602.601 625.027 602.52 624.859 602.439 624.69Z" fill="#0EA1EF"/>
<path d="M588.728 670.564C588.031 670.447 587.334 670.194 586.647 670.229C583.898 670.404 581.161 670.672 578.416 670.881C577.294 670.971 576.164 671.139 575.06 671.039C573.128 670.864 571.295 669.44 571.053 668.132C570.815 666.781 572.195 664.808 574.009 663.975C574.468 663.763 574.947 663.567 575.439 663.479C579.212 662.834 582.998 662.23 586.846 662.385C589.058 662.482 591.19 662.956 593.197 663.931C594.869 664.752 596.155 665.963 596.997 667.639C598.069 669.79 597.956 671.876 596.63 673.876C595.49 675.588 594.075 677.079 592.225 677.968C587.869 680.077 583.477 682.096 579.061 684.067C578.221 684.445 577.21 684.607 576.278 684.587C574.219 684.556 572.675 683.122 572.438 681.242C572.207 679.404 573.298 677.911 575.2 677.1C579.239 675.39 583.234 673.591 587.239 671.809C587.78 671.57 588.262 671.202 588.778 670.899C588.764 670.79 588.751 670.681 588.728 670.564Z" fill="#0EA1EF"/>
<path d="M654.8 628.888C653.557 628.627 652.596 629.123 651.669 629.614C649.606 630.701 647.816 632.128 646.32 633.928C645.638 634.747 644.941 635.577 644.13 636.25C642.503 637.614 640.44 637.754 639.151 636.723C637.852 635.684 637.382 633.577 638.384 631.78C639.227 630.276 640.349 628.898 641.529 627.633C644.221 624.77 647.379 622.557 651.2 621.411C653.121 620.828 655.075 620.77 657.034 621.163C660.072 621.787 661.874 623.641 662.46 626.671C662.989 629.461 662.613 632.16 661.622 634.791C660.835 636.868 659.697 638.734 658.244 640.4C656.545 642.353 654.799 644.261 652.985 646.109C652.38 646.723 651.566 647.234 650.75 647.525C649.372 648.022 648.065 647.666 647.036 646.602C646.016 645.545 645.673 644.241 646.182 642.864C646.488 642.041 646.994 641.253 647.566 640.584C648.92 639.007 650.454 637.577 651.741 635.949C652.77 634.643 653.607 633.165 654.402 631.684C654.835 630.862 654.934 629.886 654.8 628.888Z" fill="#0EA1EF"/>
<path d="M388.672 620.136C388.988 618.715 388.503 617.71 387.83 616.832C386.525 615.137 385.152 613.502 383.801 611.847C383.226 611.144 382.584 610.508 382.065 609.772C381.088 608.377 380.763 606.815 381.053 605.116C381.206 604.168 381.672 603.666 382.674 603.497C384.654 603.179 386.421 603.597 387.867 604.924C390.818 607.648 393.426 610.688 395.347 614.232C396.638 616.627 397.083 619.223 396.4 621.927C394.994 627.552 388.682 629.906 383.982 626.507C380.634 624.089 377.659 621.249 375.079 618.018C374.27 617.011 373.437 616.016 372.597 615.03C371.098 613.283 370.995 611.173 372.349 609.673C373.697 608.19 375.945 607.959 377.712 609.331C378.761 610.145 379.661 611.2 380.476 612.257C382.483 614.861 384.77 617.182 387.329 619.222C387.708 619.524 388.123 619.77 388.672 620.136Z" fill="#0EA1EF"/>
<path d="M480.885 683.1C480.231 682.44 479.869 681.94 479.387 681.634C478.023 680.748 476.641 679.865 475.195 679.143C473.531 678.321 471.785 677.662 470.074 676.939C468.797 676.409 467.704 675.652 467.05 674.387C466.201 672.72 466.608 671.143 468.195 670.133C469.506 669.303 470.988 669.091 472.416 669.593C476.877 671.164 481.333 672.837 484.905 676.08C486.136 677.195 487.267 678.528 488.088 679.968C490.025 683.365 489.112 686.891 485.929 689.175C483.622 690.83 480.983 691.332 478.233 691.235C473.574 691.071 469.113 689.969 464.867 688.005C462.512 686.912 461.488 684.866 462.267 682.858C463.04 680.868 465.209 680.016 467.668 680.789C468.52 681.057 469.358 681.412 470.192 681.742C472.779 682.781 475.488 683.241 478.256 683.413C478.994 683.457 479.752 683.242 480.885 683.1Z" fill="#0EA1EF"/>
<path d="M711.175 532.09C708.934 529.728 707.792 527.161 707.971 524.035C708.075 522.291 708.085 520.541 708.028 518.801C708.001 517.977 707.825 517.121 707.539 516.338C707.12 515.172 706.022 514.986 705.177 515.928C704.819 516.331 704.562 516.866 704.381 517.392C703.274 520.592 702.96 523.855 703.746 527.192C703.875 527.739 704.004 528.294 704.057 528.85C704.214 530.569 703.362 532.066 701.907 532.701C700.444 533.337 698.667 533.041 697.593 531.752C696.969 530.995 696.432 530.048 696.202 529.105C694.821 523.617 695.408 518.248 697.704 513.116C699.408 509.312 703.009 507.299 707.093 507.501C709.881 507.637 712.027 508.901 713.621 511.139C714.759 512.727 715.531 514.523 715.629 516.455C715.77 519.472 715.838 522.525 715.621 525.545C715.419 528.41 713.692 530.477 711.175 532.09Z" fill="#0EA1EF"/>
<path d="M716.23 558.312C715.722 559.016 715.123 559.671 714.723 560.429C713.392 562.924 712.266 565.496 711.907 568.337C711.852 568.779 711.746 569.227 711.604 569.655C711.025 571.356 709.588 572.406 707.935 572.35C706.206 572.295 704.71 571.11 704.333 569.333C704.163 568.527 704.121 567.646 704.248 566.828C704.948 562.366 706.604 558.244 709.24 554.596C710.213 553.246 711.488 552.062 712.829 551.066C713.881 550.277 715.18 549.688 716.463 549.381C721.362 548.202 724.646 550.927 724.607 555.971C724.576 561.005 723.273 565.765 721.452 570.402C720.806 572.044 719.673 573.269 717.899 573.74C716.339 574.149 715.294 573.709 714.502 572.291C713.685 570.817 713.714 569.278 714.198 567.708C714.799 565.774 715.453 563.858 715.992 561.906C716.304 560.793 716.43 559.626 716.637 558.491C716.501 558.432 716.365 558.363 716.23 558.312Z" fill="#0EA1EF"/>
<path d="M678.9 577.214C676.751 579.036 674.752 580.975 673.415 583.497C672.986 584.284 672.55 585.089 671.969 585.759C670.667 587.27 668.679 587.597 667.073 586.691C665.429 585.755 664.603 583.736 665.417 581.868C666.104 580.281 666.973 578.714 668.05 577.376C669.812 575.185 671.726 573.12 673.719 571.138C675.523 569.342 677.763 568.31 680.335 568.08C683.371 567.818 685.834 569.367 686.613 572.304C686.99 573.74 687.156 575.331 687 576.8C686.444 582.148 684.733 587.112 681.662 591.574C680.45 593.33 678.869 594.449 676.666 594.633C675.654 594.717 675.091 594.311 674.684 593.45C673.858 591.695 673.927 589.938 674.709 588.22C675.158 587.251 675.726 586.344 676.275 585.422C677.777 582.923 678.487 580.164 678.9 577.214Z" fill="#0EA1EF"/>
<path d="M460.246 625.925C459.855 625.394 459.54 624.786 459.059 624.352C457.09 622.596 455.142 620.803 453.049 619.208C451.369 617.918 450.113 616.473 449.66 614.365C449.455 613.418 449.733 612.914 450.585 612.5C452.464 611.582 454.38 611.426 456.296 612.217C457.275 612.614 458.268 613.12 459.062 613.804C461.108 615.559 463.133 617.359 465.013 619.288C466.876 621.22 468.134 623.56 468.73 626.196C469.858 631.238 466.21 635.244 461.084 634.482C459.259 634.209 457.414 633.776 455.701 633.105C452.876 632.002 450.149 630.657 447.395 629.366C446.796 629.083 446.247 628.649 445.733 628.219C445.304 627.864 444.903 627.454 444.573 627.001C443.366 625.337 443.453 623.245 444.748 621.88C446.073 620.486 448.108 620.264 449.814 621.558C452.048 623.247 454.619 624.237 457.137 625.344C458.048 625.741 459.033 625.975 459.984 626.282C460.072 626.168 460.159 626.047 460.246 625.925Z" fill="#0EA1EF"/>
<path d="M713.408 618.224C712.211 618.332 711.57 619.069 711.06 619.824C709.597 621.96 708.219 624.155 706.82 626.317C706.448 626.884 706.16 627.509 705.739 628.022C704.529 629.521 702.632 629.965 701.041 629.176C699.459 628.394 698.649 626.629 699.07 624.76C699.19 624.225 699.366 623.657 699.657 623.194C701.53 620.255 703.29 617.229 705.388 614.458C707.603 611.528 710.736 610.068 714.482 610.159C718.365 610.251 721.122 612.786 721.263 616.682C721.343 618.743 721.166 620.863 720.728 622.871C720.046 625.992 719.104 629.069 718.158 632.13C717.506 634.267 715.996 635.616 713.789 636.167C713.038 636.364 712.511 636.174 712.011 635.589C710.606 633.907 710.155 632.02 710.743 629.916C711.185 628.343 711.768 626.812 712.149 625.229C712.637 623.215 712.985 621.168 713.385 619.131C713.429 618.869 713.395 618.601 713.408 618.224Z" fill="#0EA1EF"/>
<path d="M392.496 549.414C391.338 547.122 389.607 545.293 387.683 543.625C387.223 543.222 386.702 542.87 386.233 542.469C385.843 542.143 385.461 541.816 385.131 541.431C383.785 539.886 383.552 537.827 384.548 536.457C385.541 535.07 387.551 534.646 389.448 535.422C389.755 535.554 390.071 535.694 390.342 535.89C394.795 538.953 398.354 542.777 400.369 547.878C400.957 549.373 401.161 550.925 400.833 552.518C399.983 556.607 396.629 558.819 392.555 557.951C389.664 557.334 386.913 556.273 384.501 554.59C382.248 553.014 380.139 551.225 378.076 549.404C377.356 548.761 376.811 547.815 376.44 546.898C375.852 545.412 376.393 543.749 377.611 542.795C378.892 541.789 380.311 541.679 381.718 542.431C382.404 542.797 382.986 543.363 383.557 543.897C385.742 545.95 387.99 547.892 390.763 549.129C391.26 549.348 391.769 549.532 392.28 549.732C392.352 549.629 392.424 549.517 392.496 549.414Z" fill="#0EA1EF"/>
<path d="M331.187 552.36C331.554 550.463 331.31 548.593 330.706 546.776C330.336 545.663 329.712 544.633 329.275 543.537C328.941 542.709 328.595 541.857 328.477 540.985C328.252 539.266 329.127 537.749 330.552 537.083C331.889 536.455 333.54 536.767 334.746 537.954C335.223 538.423 335.618 538.987 335.964 539.566C338.035 543.015 339.128 546.757 339.192 550.79C339.231 552.865 338.803 554.821 337.876 556.668C335.934 560.545 331.515 562.022 327.72 559.907C326.482 559.219 325.337 558.186 324.447 557.07C323.262 555.582 322.251 553.919 321.39 552.228C320.19 549.872 319.174 547.417 318.118 544.991C317.869 544.434 317.682 543.827 317.605 543.214C317.37 541.419 318.334 539.797 319.948 539.134C321.497 538.504 323.249 538.94 324.324 540.374C324.888 541.13 325.266 542.029 325.689 542.888C327.037 545.6 328.354 548.342 329.718 551.052C329.989 551.581 330.42 552.03 330.78 552.513C330.918 552.462 331.057 552.41 331.187 552.36Z" fill="#0EA1EF"/>
<path d="M323.73 631.7C323.613 630.768 323.522 629.841 323.371 628.914C323.11 627.31 322.73 625.712 322.561 624.096C322.341 622.009 323.1 620.251 324.669 618.826C325.297 618.261 325.903 618.202 326.651 618.585C328.117 619.33 329.334 620.396 329.77 621.961C330.895 626.023 332.024 630.119 331.31 634.404C331.132 635.501 330.864 636.626 330.412 637.638C328.998 640.766 325.545 642.129 322.351 640.868C321.679 640.603 320.996 640.263 320.438 639.822C317.405 637.406 314.851 634.59 313.426 630.915C312.477 628.46 311.625 625.958 310.757 623.458C310.541 622.829 310.388 622.157 310.33 621.491C310.159 619.586 311.239 617.94 312.922 617.422C314.654 616.888 316.429 617.577 317.404 619.228C317.717 619.752 317.92 620.349 318.129 620.928C318.976 623.251 319.805 625.577 320.636 627.911C321.2 629.477 322.192 630.725 323.334 631.869C323.464 631.818 323.593 631.759 323.73 631.7Z" fill="#0EA1EF"/>
<path d="M289.983 546.835C290.177 546.341 290.405 545.852 290.562 545.338C291.23 543.19 291.79 541.005 292.557 538.897C292.941 537.817 293.507 536.688 294.311 535.896C296.257 533.946 299.08 534.631 299.955 537.25C300.286 538.257 300.36 539.518 300.088 540.541C299.246 543.742 298.317 546.937 297.129 550.028C296.5 551.668 295.462 553.248 294.269 554.541C291.054 557.997 285.933 557.277 283.591 553.164C282.464 551.183 281.858 549.008 281.667 546.747C281.34 542.925 281.423 539.112 282.166 535.327C282.317 534.566 282.543 533.787 282.891 533.095C283.768 531.391 285.546 530.613 287.268 531.087C288.937 531.542 290.053 533.022 290.038 534.874C290.035 535.658 289.817 536.436 289.779 537.217C289.638 539.963 289.515 542.707 289.408 545.449C289.394 545.885 289.509 546.323 289.564 546.759C289.704 546.784 289.843 546.81 289.983 546.835Z" fill="#0EA1EF"/>
<path d="M370.184 493.031C368.891 491.769 367.284 490.991 365.629 490.312C364.848 489.993 364.039 489.737 363.265 489.408C362.202 488.961 361.338 488.26 360.766 487.232C359.686 485.296 360.31 483.41 362.314 482.459C363.489 481.902 364.719 481.858 365.939 482.199C369.898 483.304 373.469 485.123 376.384 488.098C377.735 489.48 378.747 491.092 379.428 492.908C380.438 495.654 379.597 498.386 377.177 500.029C375.504 501.161 373.615 501.808 371.593 501.525C369.823 501.279 368.057 500.87 366.353 500.334C363.727 499.522 361.148 498.541 358.559 497.614C357.978 497.405 357.394 497.164 356.891 496.826C355.485 495.886 354.896 494.255 355.322 492.692C355.738 491.19 356.987 490.069 358.622 489.983C359.555 489.943 360.537 490.092 361.425 490.372C363.679 491.078 365.889 491.9 368.119 492.685C368.752 492.904 369.377 493.124 370.001 493.344C370.065 493.242 370.128 493.131 370.184 493.031Z" fill="#0EA1EF"/>
<path d="M405.424 673.595C404.964 672.988 404.558 672.34 404.045 671.782C402.986 670.619 401.797 669.567 400.807 668.344C400.159 667.53 399.542 666.559 399.324 665.572C398.765 663.025 400.799 660.961 403.371 661.413C404.226 661.562 405.151 661.94 405.793 662.499C408.805 665.155 411.626 667.998 413.274 671.747C413.764 672.862 414.19 674.078 414.308 675.283C414.794 680.031 410.488 683.685 405.742 682.491C404.077 682.069 402.477 681.282 400.95 680.459C398.912 679.377 396.986 678.093 395.018 676.883C394.685 676.677 394.357 676.446 394.068 676.183C392.76 675.001 392.366 673.226 393.047 671.725C393.755 670.169 395.456 669.256 397.25 669.619C398.055 669.782 398.858 670.133 399.583 670.544C401.153 671.43 402.667 672.416 404.207 673.339C404.521 673.53 404.869 673.657 405.204 673.811C405.279 673.733 405.348 673.665 405.424 673.595Z" fill="#0EA1EF"/>
<path d="M541.871 714.112C539.579 713.454 537.433 713.877 535.278 714.302C534.397 714.481 533.524 714.795 532.64 714.821C531.766 714.855 530.818 714.769 530.019 714.452C528.133 713.692 527.442 711.655 528.309 709.807C528.947 708.439 530.092 707.647 531.49 707.233C535.469 706.058 539.507 705.559 543.642 706.369C548.389 707.298 550.836 710.963 549.725 715.682C548.963 718.915 546.939 721.191 543.939 722.489C541.667 723.474 539.309 724.248 536.968 725.029C535.143 725.633 533.303 724.901 532.428 723.366C531.519 721.767 531.862 719.745 533.384 718.496C534.073 717.941 534.898 717.522 535.718 717.188C537.178 716.595 538.687 716.124 540.164 715.597C540.849 715.349 541.541 715.083 541.871 714.112Z" fill="#0EA1EF"/>
<path d="M312.32 314.144C311.376 314.979 310.547 315.501 310 316.235C308.751 317.901 307.505 319.584 306.505 321.398C304.55 324.969 303.166 328.81 302.318 332.779C301.349 337.343 300.695 341.97 299.865 346.559C299.651 347.772 299.296 348.95 298.959 350.135C298.207 352.83 298.289 355.514 298.837 358.31C299.087 358.134 299.227 358.091 299.244 358.02C299.349 357.641 299.437 357.254 299.49 356.864C300.27 351.334 302.334 346.257 304.731 341.249C307.07 336.325 309.154 331.271 311.176 326.199C311.969 324.232 312.365 322.093 312.794 320.01C313.169 318.181 313.031 316.34 312.32 314.144ZM290.81 358.152C290.216 353.836 290.846 349.621 291.793 345.426C292.225 343.505 292.631 341.578 292.924 339.639C293.868 333.382 295.421 327.295 297.83 321.432C299.3 317.871 301.205 314.579 303.642 311.586C305.424 309.41 307.546 307.71 310.221 306.743C314.209 305.303 317.66 306.711 319.392 310.645C320.778 313.805 321.04 317.174 320.616 320.578C320.236 323.661 319.499 326.679 318.299 329.541C316.063 334.878 313.856 340.246 311.349 345.464C309.059 350.237 307.575 355.182 306.764 360.391C306.491 362.156 305.844 363.858 305.344 365.575C305.229 365.947 304.99 366.284 304.794 366.625C301.84 371.745 297.178 370.882 294.243 367.543C292.989 366.114 292.231 364.428 291.78 362.609C291.407 361.129 291.134 359.637 290.81 358.152Z" fill="#0EA1EF"/>
<path d="M295.25 395.408C297.903 393.113 299.248 383.207 297.052 380.729C296.172 380.985 295.989 381.767 295.766 382.502C295.564 383.201 295.434 383.925 295.187 384.605C293.876 388.146 294.418 391.642 295.25 395.408ZM286.672 391.61C286.1 388.152 286.936 383.818 288.433 379.579C289.878 375.484 292.666 373.036 297.143 372.771C300.147 372.589 302.874 374.071 304.139 376.811C304.787 378.23 305.312 379.758 305.582 381.293C306.588 387.058 305.771 392.627 303.164 397.866C302.477 399.248 301.52 400.588 300.4 401.649C296.445 405.387 290.848 404.267 288.498 399.353C287.49 397.237 287.062 394.98 286.672 391.61Z" fill="#0EA1EF"/>
<defs>
<filter id="filter0_df_10_134" x="255.114" y="271.334" width="554.295" height="513.431" filterUnits="userSpaceOnUse" color-interpolation-filters="sRGB">
<feFlood flood-opacity="0" result="BackgroundImageFix"/>
<feColorMatrix in="SourceAlpha" type="matrix" values="0 0 0 0 0 0 0 0 0 0 0 0 0 0 0 0 0 0 127 0" result="hardAlpha"/>
<feOffset dx="20" dy="-5"/>
<feGaussianBlur stdDeviation="2.5"/>
<feComposite in2="hardAlpha" operator="out"/>
<feColorMatrix type="matrix" values="0 0 0 0 0.9475 0 0 0 0 0.625 0 0 0 0 1 0 0 0 0.5 0"/>
<feBlend mode="normal" in2="BackgroundImageFix" result="effect1_dropShadow_10_134"/>
<feBlend mode="normal" in="SourceGraphic" in2="effect1_dropShadow_10_134" result="shape"/>
<feGaussianBlur stdDeviation="2" result="effect2_foregroundBlur_10_134"/>
</filter>
</defs>
</svg>
