<svg width="1208" height="2528" viewBox="0 0 1208 2528" fill="none" xmlns="http://www.w3.org/2000/svg">
<g filter="url(#filter0_d_26_936)">
<g clip-path="url(#clip0_26_936)">
<rect x="49" y="44" width="1080" height="2400" rx="50" fill="black"/>
<g filter="url(#filter1_bdif_26_936)">
<path d="M217.935 1840.99C217.405 1841.47 216.971 1841.85 216.556 1842.25C213.787 1844.96 210.997 1847.65 208.262 1850.4C203.974 1854.71 199.63 1858.96 196.223 1864.05C193.707 1867.81 191.142 1871.54 188.675 1875.33C183.038 1883.97 178.216 1893.02 175.032 1902.88C174.205 1905.47 173.123 1907.97 172.192 1910.52C170.311 1915.68 168.423 1920.84 166.584 1926.02C165.415 1929.3 164.419 1932.66 163.174 1935.91C160.345 1943.34 157.42 1950.73 154.508 1958.12C150.637 1967.94 147.18 1977.88 144.991 1988.23C144.134 1992.28 143.194 1996.32 142.129 2000.31C136.578 2021.08 132.721 2042.19 129.153 2063.37C128.615 2066.55 128.138 2069.75 127.731 2072.96C126.253 2084.69 124.761 2096.43 124.012 2108.25C123.401 2117.86 122.405 2127.45 122.075 2137.08C121.715 2147.54 121.911 2158.02 121.894 2168.49C121.889 2176.01 122.688 2183.46 123.472 2190.92C124.149 2197.42 124.811 2203.91 125.481 2210.4C125.512 2210.72 125.503 2211.05 125.555 2211.37C125.781 2213.03 125.952 2214.7 126.268 2216.35C126.98 2220.1 127.732 2223.84 128.533 2227.56C129.058 2230.03 128.385 2232.33 127.685 2234.61C127.262 2235.97 126.118 2236.81 124.721 2237.16C124.037 2237.33 123.315 2237.31 122.616 2237.44C118.353 2238.22 114.04 2238.77 109.87 2239.87C105.632 2240.99 101.454 2242.45 97.4011 2244.14C91.326 2246.68 85.1957 2249.2 79.4303 2252.36C69.3322 2257.88 59.7463 2264.3 50.5304 2271.19C39.7354 2279.28 30.7204 2289.15 22.9417 2300.14C19.2277 2305.38 16.0117 2310.9 14.3645 2317.21C12.3103 2325.07 11.3759 2332.95 13.3075 2340.98C13.6257 2342.3 13.773 2343.66 13.8718 2345.01C13.9795 2346.52 14.4153 2347.91 15.1047 2349.25C22.0334 2362.68 30.9351 2374.55 42.6056 2384.23C47.1016 2387.96 52.1037 2390.93 57.5898 2393.04C63.3382 2395.25 69.2768 2396.75 75.3019 2398C82.2153 2399.44 88.9247 2401.6 95.3882 2404.45C100.298 2406.61 105.161 2408.87 110.01 2411.18C111.337 2411.81 112.597 2412.63 113.789 2413.51C117.053 2415.92 119.408 2419.21 121.871 2422.36C125.234 2426.66 127.854 2431.41 129.75 2436.55C132.839 2444.91 135.833 2453.32 138.978 2461.66C141.93 2469.47 145.258 2477.13 149.815 2484.16C152.125 2487.73 154.708 2491.14 157.447 2494.4C163.496 2501.58 169.742 2508.59 178.325 2512.93C178.961 2513.25 179.53 2513.69 180.145 2514.04C184.932 2516.84 189.905 2519.08 195.529 2519.56C199.998 2519.94 204.441 2519.88 208.861 2519.04C210.513 2518.72 212.157 2518.39 213.816 2518.12C219.355 2517.21 224.616 2515.55 229.443 2512.61C231.434 2511.4 233.488 2510.3 235.493 2509.12C245.934 2502.98 255.274 2495.55 263.107 2486.21C271.021 2476.76 277.904 2466.62 284.405 2456.18C290.488 2446.4 295.204 2436.01 298.642 2425.06C300.672 2418.58 302.343 2411.99 302.418 2405.11C302.441 2403.03 303.523 2401.66 305.442 2400.79C307.983 2399.65 310.601 2399.7 313.25 2400.08C316.642 2400.55 320.021 2401.09 323.413 2401.58C333.645 2403.09 343.883 2404.58 354.121 2406.06C355.263 2406.23 356.438 2406.28 357.594 2406.37C361.98 2406.72 366.366 2407.06 370.746 2407.41C376.094 2407.84 381.438 2408.42 386.792 2408.68C403.622 2409.48 420.404 2409.08 437.075 2406.34C437.842 2406.21 438.625 2406.17 439.386 2406.03C445.17 2405 450.997 2404.12 456.738 2402.87C465.458 2400.97 474.114 2398.79 482.798 2396.77C501.003 2392.54 519.172 2388.18 537.168 2383.13C542.829 2381.54 548.46 2379.81 554.021 2377.9C564.842 2374.2 575.697 2370.53 586.39 2366.47C599.442 2361.53 612.401 2356.31 625.311 2351C634.448 2347.23 643.437 2343.09 652.489 2339.1C663.222 2334.36 673.357 2328.5 683.037 2321.93C687.833 2318.67 692.118 2314.67 696.634 2310.99C696.872 2310.8 697.026 2310.52 697.385 2310.09C696.535 2309.66 695.843 2309.22 695.084 2308.92C691.011 2307.26 686.952 2305.58 682.84 2304.03C670.757 2299.44 658.655 2294.9 646.546 2290.36C644.248 2289.5 641.95 2288.64 639.606 2287.89C623.657 2282.76 607.471 2278.53 591.114 2274.89C573.545 2270.97 555.817 2268.08 537.941 2266.05C528.36 2264.97 518.738 2264.45 509.099 2264.82C500.566 2265.15 492.049 2265.69 483.523 2266.08C455.309 2267.37 427.581 2271.82 400.218 2278.66C386.42 2282.11 372.837 2286.31 359.434 2291.12C346.953 2295.62 334.529 2300.25 322.615 2306.07C313.029 2310.75 303.604 2315.75 294.109 2320.6C293.645 2320.83 293.195 2321.09 292.772 2321.38C290.873 2322.73 288.964 2323.89 286.58 2324.4C284.881 2324.77 283.471 2324.64 282.236 2323.62C281.313 2322.86 280.566 2321.83 279.922 2320.81C278.472 2318.53 277.261 2316.08 275.743 2313.85C270.855 2306.69 266.056 2299.46 260.303 2292.98C255.456 2287.51 250.29 2282.34 245.097 2277.2C241.42 2273.58 237.619 2270.04 233.576 2266.84C227.376 2261.93 220.407 2258.18 213.371 2254.6C211.485 2253.64 209.475 2252.78 207.429 2252.27C203.517 2251.32 201.451 2248.08 204.256 2243.81C204.331 2243.71 204.398 2243.6 204.472 2243.5C209.51 2236.41 213.621 2228.8 217.531 2221.06C224.587 2207.09 231.083 2192.89 236.392 2178.12C245.161 2153.72 251.477 2128.67 256.643 2103.31C260.739 2083.2 263.507 2062.89 265.03 2042.43C266.009 2029.15 266.362 2015.84 265.349 2002.51C264.433 1990.45 263.435 1978.41 261.538 1966.45C259.781 1955.33 257.71 1944.27 254.515 1933.47C251.334 1922.68 248.071 1911.91 243.865 1901.47C243.503 1900.56 243.183 1899.65 242.911 1898.72C239.134 1885.85 234.039 1873.48 228.424 1861.32C225.348 1854.64 221.807 1848.16 218.465 1841.6C218.387 1841.44 218.235 1841.32 217.935 1840.99ZM119.466 2228.59C119.44 2228.19 119.436 2227.81 119.376 2227.43C119.214 2226.54 119.08 2225.65 118.849 2224.78C116.935 2217.62 116.331 2210.25 115.493 2202.95C112.721 2178.88 112.056 2154.73 113.259 2130.53C113.529 2125.04 113.922 2119.55 114.474 2114.09C115.652 2102.58 116.391 2091.03 117.831 2079.54C119.728 2064.37 122.409 2049.36 125.215 2034.37C127.195 2023.83 129.823 2013.41 132.216 2002.95C133.345 1998.04 134.707 1993.18 135.76 1988.25C138.159 1977.09 141.592 1966.27 145.831 1955.68C148.904 1948 151.894 1940.29 154.857 1932.57C155.942 1929.73 156.799 1926.81 157.829 1923.95C159.841 1918.28 161.895 1912.63 163.942 1906.99C164.739 1904.79 165.668 1902.66 166.376 1900.45C169.903 1889.46 175.234 1879.37 181.581 1869.79C184.582 1865.27 187.639 1860.78 190.779 1856.35C194.351 1851.31 198.847 1847.11 203.231 1842.8C205.308 1840.77 207.358 1838.71 209.463 1836.71C210.868 1835.36 212.238 1833.97 213.784 1832.82C217.779 1829.85 222.047 1830.64 224.851 1834.75C225.25 1835.33 225.635 1835.93 225.959 1836.56C229.491 1843.47 233.214 1850.28 236.466 1857.31C242.264 1869.87 247.55 1882.66 251.449 1895.96C251.692 1896.77 251.963 1897.57 252.275 1898.34C256.517 1908.85 259.787 1919.68 263.01 1930.52C266.39 1941.88 268.585 1953.5 270.438 1965.2C272.343 1977.29 273.37 1989.45 274.281 2001.65C275.371 2016.2 274.964 2030.73 273.808 2045.24C272.212 2065.37 269.42 2085.35 265.45 2105.14C259.816 2133.19 252.583 2160.83 242.503 2187.65C238.265 2198.91 233.198 2209.81 227.821 2220.57C223.838 2228.56 219.717 2236.47 214.96 2244.03C214.765 2244.34 214.652 2244.7 214.445 2245.15C215.218 2245.51 215.923 2245.82 216.607 2246.16C224.575 2250.19 232.463 2254.42 239.434 2260.03C244.304 2263.95 248.808 2268.35 253.346 2272.68C257.036 2276.2 260.611 2279.87 264.091 2283.6C269.748 2289.67 274.515 2296.44 279.288 2303.2C281.853 2306.83 284.343 2310.52 286.853 2314.15C287.046 2314.15 287.197 2314.19 287.286 2314.14C294.35 2310.48 301.422 2306.86 308.444 2303.13C323.437 2295.16 339.109 2288.78 355.112 2283.16C356.822 2282.56 358.547 2282.01 360.242 2281.4C383.247 2273.12 406.879 2267.3 430.914 2262.97C452.852 2259 475.017 2257.37 497.259 2256.36C507.988 2255.88 518.704 2255.45 529.429 2256.29C531.107 2256.43 532.791 2256.51 534.462 2256.69C550.789 2258.45 567.053 2260.69 583.146 2264.04C602.97 2268.18 622.624 2272.96 641.89 2279.21C644.835 2280.17 647.747 2281.26 650.651 2282.34C659.973 2285.82 669.301 2289.29 678.603 2292.83C685.186 2295.34 691.763 2297.87 698.265 2300.57C700.516 2301.5 702.559 2302.93 704.656 2304.19C705.196 2304.51 705.662 2305 706.087 2305.49C708.566 2308.3 708.599 2311.63 706.044 2314.39C704.6 2315.95 703.003 2317.39 701.358 2318.75C697.019 2322.32 692.729 2325.97 688.202 2329.29C684.935 2331.69 681.269 2333.56 677.848 2335.77C670.052 2340.8 661.734 2344.79 653.27 2348.54C645.939 2351.76 638.644 2355.08 631.286 2358.27C606.354 2369.07 580.841 2378.35 555.107 2387.03C550.271 2388.66 545.379 2390.15 540.464 2391.53C522.037 2396.7 503.43 2401.19 484.793 2405.52C476.033 2407.56 467.317 2409.74 458.535 2411.66C452.794 2412.91 446.988 2413.88 441.189 2414.82C437.104 2415.49 432.973 2415.84 428.88 2416.42C418.663 2417.85 408.405 2418.12 398.107 2417.95C388.077 2417.77 378.077 2417.26 368.105 2416.18C364.632 2415.81 361.147 2415.64 357.669 2415.36C356.115 2415.24 354.562 2415.18 353.028 2414.96C342.659 2413.47 332.296 2411.95 321.941 2410.43C318.494 2409.93 315.046 2409.42 311.523 2408.9C311.391 2409.28 311.243 2409.57 311.199 2409.87C309.07 2425.73 303.514 2440.45 295.867 2454.36C290.579 2464 284.571 2473.23 277.912 2481.98C274.627 2486.31 271.168 2490.49 267.633 2494.61C262.465 2500.62 256.539 2505.79 250.056 2510.37C243.6 2514.94 236.766 2518.86 229.812 2522.57C226.141 2524.54 222.1 2525.54 218.066 2526.46C215.422 2527.07 212.728 2527.47 210.055 2527.94C203.619 2529.07 197.184 2529.13 190.76 2527.88C185.266 2526.8 180.159 2524.74 175.283 2521.95C165.295 2516.23 157.361 2508.28 150.016 2499.58C143.019 2491.29 137.626 2482.09 133.609 2472.06C130.677 2464.75 128.004 2457.33 125.208 2449.96C123.817 2446.27 122.426 2442.58 121.028 2438.89C118.637 2432.62 114.727 2427.36 110.264 2422.44C109.756 2421.88 109.112 2421.41 108.461 2421C104.079 2418.23 99.4159 2415.98 94.6322 2414.01C90.4559 2412.3 86.2593 2410.59 81.9967 2409.12C79.0101 2408.09 75.9166 2407.31 72.8249 2406.67C66.3591 2405.33 59.9855 2403.67 53.8428 2401.21C45.4499 2397.85 38.1219 2392.82 31.6444 2386.57C21.5598 2376.82 13.3675 2365.67 7.0336 2353.15C5.26719 2349.67 4.13705 2345.97 3.38996 2342.15C3.26545 2341.51 3.12705 2340.86 3.15362 2340.22C3.43705 2334.16 3.07456 2328.08 4.10696 2322.04C5.61395 2313.24 8.81291 2305.19 13.7359 2297.71C19.2793 2289.29 25.8989 2281.82 32.9134 2274.63C39.7719 2267.6 47.6695 2261.87 55.8464 2256.51C60.8137 2253.24 65.8652 2250.11 70.8885 2246.93C78.1885 2242.31 86.0656 2238.84 94.0988 2235.79C102.07 2232.75 110.105 2229.83 118.679 2228.84C118.919 2228.82 119.158 2228.7 119.466 2228.59Z" fill="#EB00FF" fill-opacity="0.8" shape-rendering="crispEdges"/>
</g>
<g filter="url(#filter2_bdif_26_936)">
<path d="M304.799 2380.62C305.547 2380.64 306.125 2380.68 306.688 2380.66C313.615 2380.41 320.496 2379.73 327.279 2378.35C331.931 2377.39 336.61 2377.02 341.332 2376.73C344.551 2376.53 347.761 2376.12 350.971 2375.76C353.536 2375.47 356.093 2375.02 358.659 2374.84C367.752 2374.2 376.862 2373.82 385.939 2373C402.687 2371.5 419.501 2370.99 436.224 2369.16C459.882 2366.59 483.556 2364.25 506.95 2359.72C527.658 2355.7 548.207 2351.1 568.122 2344C570.31 2343.22 572.584 2342.65 574.765 2341.85C580.885 2339.6 587.103 2337.54 593.06 2334.91C601.75 2331.08 610.44 2327.2 618.693 2322.47C621.885 2320.65 625.071 2318.81 628.304 2316.96C627.237 2315.13 625.542 2314.63 623.868 2314.23C616.312 2312.46 608.788 2310.52 601.174 2309.08C592.224 2307.39 583.216 2305.96 574.183 2304.74C559.694 2302.77 545.101 2301.81 530.467 2302.08C520.963 2302.25 511.468 2302.58 501.969 2303.09C491.776 2303.65 481.593 2304.49 471.409 2305.22C454.109 2306.45 436.939 2308.77 419.836 2311.59C409.191 2313.34 398.626 2315.53 388.136 2318.16C378.981 2320.46 369.782 2322.55 360.735 2325.28C345.139 2329.98 329.586 2334.82 314.475 2340.97C309.861 2342.85 305.311 2344.86 300.747 2346.83C299.873 2347.22 299.062 2347.74 298.025 2348.3C300.292 2359.11 302.545 2369.84 304.799 2380.62V2380.62ZM638.409 2321.64C637.878 2321.98 636.877 2322.7 635.812 2323.29C629.808 2326.57 623.79 2329.86 617.765 2333.11C615.377 2334.39 612.981 2335.68 610.509 2336.79C601.259 2340.97 592.151 2345.44 582.535 2348.78C556.846 2357.74 530.638 2364.65 503.84 2369.43C481.778 2373.36 459.538 2375.59 437.301 2378.07C420.647 2379.92 403.894 2380.43 387.215 2381.9C377.815 2382.73 368.383 2383.15 358.961 2383.81C356.909 2383.95 354.866 2384.32 352.809 2384.55C349.16 2384.95 345.498 2385.43 341.826 2385.68C337.502 2385.98 333.2 2386.3 328.931 2387.17C320.998 2388.79 312.949 2389.48 304.854 2389.68C304.147 2389.7 303.406 2389.79 302.738 2389.61C301.745 2389.36 300.562 2389.16 299.915 2388.5C298.162 2386.72 296.478 2384.9 295.951 2382.24C294.021 2372.61 292.042 2362.98 289.92 2353.39C289.338 2350.76 289.478 2348.15 289.357 2345.52C289.284 2344.01 290.113 2342.75 291.36 2341.93C292.982 2340.87 294.624 2339.81 296.373 2339.01C300.362 2337.16 304.393 2335.41 308.459 2333.73C319.401 2329.24 330.534 2325.21 341.838 2321.72C346.286 2320.35 350.719 2318.92 355.174 2317.57C365.261 2314.5 375.492 2312.02 385.73 2309.5C396.919 2306.74 408.175 2304.39 419.534 2302.54C436.383 2299.8 453.293 2297.51 470.339 2296.3C471.952 2296.18 473.565 2296.1 475.177 2295.92C494.164 2293.89 513.248 2293.57 532.309 2293.11C546.673 2292.76 561.015 2293.88 575.249 2295.83C584.468 2297.09 593.676 2298.53 602.811 2300.27C610.68 2301.76 618.459 2303.76 626.263 2305.59C629.321 2306.31 632.078 2307.67 634.338 2309.97C635.048 2310.69 636.022 2311.15 636.887 2311.71C638.154 2312.54 639.231 2313.54 639.88 2314.93C640.909 2317.13 640.512 2319.46 638.409 2321.64" fill="#EB00FF" fill-opacity="0.8" shape-rendering="crispEdges"/>
</g>
<g filter="url(#filter3_bdif_26_936)">
<path d="M179.809 2237.41C181.384 2234.71 182.858 2232.28 184.229 2229.81C186.044 2226.53 187.824 2223.23 189.521 2219.89C190.715 2217.53 191.674 2215.04 192.84 2212.67C195.474 2207.31 197.542 2201.73 199.094 2195.98C201.42 2187.38 203.664 2178.74 205.695 2170.06C207.516 2162.25 208.958 2154.36 210.635 2146.53C211.519 2142.35 212.526 2138.21 213.506 2134.06C214.414 2130.22 215.397 2126.41 216.285 2122.56C217.231 2118.47 218.032 2114.33 219.02 2110.25C223.683 2090.98 226.57 2071.41 228.459 2051.7C230.75 2027.7 229.442 2003.76 226.082 1979.93C224.422 1968.23 222.219 1956.59 220.203 1944.93C219.627 1941.63 219.098 1938.28 218.077 1935.09C215.871 1928.21 213.446 1921.37 210.932 1914.59C210.059 1912.24 208.659 1910.11 207.478 1907.88C207.302 1907.56 207.038 1907.3 206.599 1906.75C205.728 1908.6 204.938 1910.21 204.202 1911.82C200.824 1919.31 198.254 1927.11 195.505 1934.85C189.701 1951.2 185.702 1968.07 180.774 1984.68C178.292 1992.99 176.996 2001.58 175.169 2010.04C172.346 2023.06 169.447 2036.06 166.274 2048.99C163.211 2061.45 161.167 2074.09 159.356 2086.75C156.799 2104.67 154.539 2122.64 152.573 2140.63C151.436 2151.03 150.732 2161.51 150.523 2171.98C150.263 2185.02 150.662 2198.09 150.876 2211.15C150.981 2217.51 152.32 2223.73 153.317 2229.98C153.473 2230.99 153.777 2231.71 155.024 2231.96C161.544 2233.28 168.052 2234.71 174.553 2236.13C176.316 2236.51 178.053 2236.98 179.809 2237.41V2237.41ZM212.067 1898.87C212.8 1899.84 213.608 1900.78 214.266 1901.82C216.681 1905.57 218.776 1909.5 220.27 1913.73C221.82 1918.12 223.405 1922.49 224.935 1926.89C226.707 1931.95 228.068 1937.12 228.93 1942.44C230.875 1954.44 233.225 1966.38 234.931 1978.4C238.44 2003.19 239.78 2028.1 237.35 2053.06C235.409 2073.08 232.457 2092.98 227.695 2112.55C226.766 2116.38 226.024 2120.26 225.136 2124.1C224.164 2128.26 223.115 2132.39 222.128 2136.55C221.213 2140.38 220.298 2144.2 219.48 2148.06C217.784 2156.03 216.316 2164.04 214.468 2171.97C212.412 2180.78 210.142 2189.54 207.769 2198.27C206.067 2204.58 203.806 2210.71 200.917 2216.59C199.778 2218.91 198.859 2221.34 197.678 2223.63C195.699 2227.48 193.609 2231.26 191.54 2235.07C190.391 2237.16 189.179 2239.22 188.051 2241.33C187.816 2241.75 187.651 2242.32 187.746 2242.76C188.036 2244.08 187.311 2244.86 186.427 2245.56C184.563 2247.04 182.429 2247.24 180.177 2246.71C176.464 2245.84 172.765 2244.93 169.045 2244.1C164.245 2243.02 159.452 2241.98 154.639 2240.98C153.847 2240.81 152.968 2240.8 152.159 2240.93C149.547 2241.35 147.765 2240.55 146.549 2238.22C146.225 2237.6 145.956 2236.93 145.748 2236.25C145.319 2234.83 144.828 2233.41 144.57 2231.95C143.448 2225.52 142.236 2219.1 141.937 2212.57C141.3 2198.6 141.089 2184.63 141.544 2170.68C141.943 2158.27 142.671 2145.88 144.3 2133.55C146.394 2117.66 148.116 2101.72 150.417 2085.86C152.305 2072.81 154.385 2059.79 157.533 2046.96C160.7 2034.02 163.612 2021.02 166.414 2008.01C168.254 1999.48 169.591 1990.84 172.072 1982.46C177.046 1965.66 181.104 1948.62 186.961 1932.07C189.77 1924.15 192.372 1916.17 195.864 1908.52C197.015 1905.99 198.29 1903.51 199.517 1901.02C199.657 1900.74 199.839 1900.47 200.021 1900.2C203.104 1895.52 208.022 1894.99 212.067 1898.87" fill="#EB00FF" fill-opacity="0.8" shape-rendering="crispEdges"/>
</g>
<g filter="url(#filter4_bdif_26_936)">
<path d="M82.5934 2278.64C82.3836 2278.9 82.2409 2279.03 82.1605 2279.19C79.8826 2284.48 77.6664 2289.75 76.5339 2295.46C74.6822 2304.73 73.8747 2313.99 75.4381 2323.38C76.5718 2330.19 78.7319 2336.68 81.7261 2342.86C84.1217 2347.81 87.1111 2352.47 90.5628 2356.73C93.7354 2360.63 97.1941 2364.33 100.808 2367.83C105.785 2372.65 111.134 2377.04 117.724 2379.58C118.124 2379.74 118.551 2379.84 119.151 2380.03C119.551 2379.05 119.981 2378.2 120.251 2377.29C120.806 2375.5 121.224 2373.67 121.793 2371.89C122.811 2368.65 123.368 2365.34 123.348 2361.97C123.308 2355.89 123.214 2349.81 123.003 2343.74C122.818 2338.76 122.092 2333.81 120.632 2329.04C117.843 2319.91 114.069 2311.21 108.561 2303.36C103.613 2296.3 97.7257 2290.03 91.3704 2284.22C88.7934 2281.85 85.6831 2280.24 82.5934 2278.64V2278.64ZM89.9431 2369.59C83.8577 2363.95 78.4098 2355.93 73.9365 2347.31C70.2232 2340.17 67.8358 2332.5 66.5369 2324.53C64.8289 2313.99 65.7253 2303.56 67.8515 2293.15C69.1862 2286.55 71.8597 2280.47 74.4777 2274.36C75.0857 2272.96 75.9624 2271.63 76.9093 2270.42C78.7963 2268.01 81.0871 2267.74 83.737 2269.32C84.6778 2269.87 85.773 2270.14 86.734 2270.66C91.5252 2273.23 96.1336 2276.03 100.028 2279.94C105.271 2285.22 110.35 2290.64 114.791 2296.61C119.91 2303.51 123.609 2311.18 126.749 2319.14C129.959 2327.3 131.683 2335.72 132.029 2344.45C132.327 2351.95 132.72 2359.44 131.959 2366.92C131.745 2369.04 131.248 2371.13 130.751 2373.2C130.182 2375.52 129.537 2377.82 128.774 2380.09C128.264 2381.61 127.575 2383.08 126.822 2384.49C126.043 2385.95 124.952 2387.13 123.324 2387.7C123.146 2387.76 122.955 2387.86 122.819 2387.98C120.543 2390.04 118.154 2389.55 115.587 2388.53C105.889 2384.63 98.0834 2378.16 89.9431 2369.59" fill="#EB00FF" fill-opacity="0.8" shape-rendering="crispEdges"/>
</g>
<g filter="url(#filter5_bdif_26_936)">
<path d="M256.446 2448.42C256.123 2447.89 255.969 2447.6 255.787 2447.34C255.535 2446.96 255.27 2446.6 254.997 2446.23C250.22 2439.69 244.241 2434.33 237.673 2429.71C224.088 2420.14 209.138 2413.61 192.707 2410.66C187.593 2409.72 182.444 2409.37 177.262 2409.67C171.14 2410.03 165.235 2411.33 159.719 2414.12C158.77 2414.6 157.878 2415.21 156.814 2415.84C157.647 2417.13 158.293 2418.23 159.047 2419.27C161.038 2422.04 163.118 2424.76 165.096 2427.55C167.241 2430.56 169.495 2433.46 172.448 2435.74C177.309 2439.49 182.074 2443.36 187.029 2446.97C194.125 2452.13 202.192 2454.65 210.914 2455.11C218.783 2455.52 226.531 2454.45 234.235 2453.07C239.258 2452.18 244.26 2451.13 249.261 2450.11C251.591 2449.63 253.884 2449.03 256.446 2448.42ZM252.944 2430.48C257.587 2434.95 261.814 2439.72 265.11 2445.27C265.608 2446.11 266.092 2446.95 266.501 2447.83C268.306 2451.65 266.984 2454.76 263.002 2456.1C262.202 2456.36 261.394 2456.59 260.572 2456.78C257.107 2457.56 253.641 2458.36 250.16 2459.08C245.604 2460.02 241.041 2460.94 236.463 2461.78C227.931 2463.34 219.346 2464.51 210.631 2464.08C199.903 2463.54 190.063 2460.34 181.372 2453.96C176.535 2450.41 171.853 2446.63 167.096 2442.96C163.47 2440.17 160.585 2436.7 157.957 2433C155.686 2429.78 153.333 2426.63 151.027 2423.43C150.196 2422.28 149.405 2421.1 148.594 2419.93C146.615 2417.03 146.664 2415.37 148.766 2412.59C148.888 2412.43 149.037 2412.3 149.097 2412.11C150.117 2409.06 152.69 2407.65 155.29 2406.31C162 2402.84 169.205 2401.16 176.707 2400.72C182.541 2400.37 188.342 2400.75 194.097 2401.78C212.083 2405 228.408 2412.2 243.303 2422.69C246.67 2425.06 249.739 2427.87 252.944 2430.48" fill="#EB00FF" fill-opacity="0.8" shape-rendering="crispEdges"/>
</g>
<g filter="url(#filter6_bdif_26_936)">
<path d="M236.63 2290.28C236.724 2290.12 236.811 2289.96 236.905 2289.79C236.338 2288.87 235.906 2287.84 235.196 2287.05C232.627 2284.23 230.14 2281.32 227.32 2278.77C221.403 2273.44 214.441 2269.69 207.238 2266.44C195.532 2261.17 183.086 2258.93 170.356 2258.14C168.157 2258 165.935 2258.3 163.718 2258.4C164.792 2259.16 165.91 2259.66 167.068 2259.99C175.381 2262.37 183.106 2266.17 190.723 2270.14C196.626 2273.21 202.381 2276.57 208.251 2279.72C213.374 2282.46 218.511 2285.19 223.734 2287.74C226.933 2289.3 230.399 2290.22 233.993 2290.4C234.866 2290.45 235.758 2290.33 236.63 2290.28V2290.28ZM235.927 2274.34C238.135 2276.82 240.194 2278.98 242.063 2281.28C243.151 2282.63 244.041 2284.15 244.83 2285.69C245.758 2287.51 246.03 2289.51 245.794 2291.55C245.422 2294.86 243.712 2297.17 240.595 2298.42C238.518 2299.25 236.35 2299.48 234.131 2299.41C229.417 2299.25 224.951 2298.01 220.623 2296.21C214.099 2293.51 208.066 2289.88 201.911 2286.46C193.323 2281.7 184.795 2276.84 175.804 2272.86C172.565 2271.42 169.199 2270.28 165.873 2269.03C163.941 2268.31 161.909 2267.81 160.058 2266.91C158.399 2266.1 156.779 2265.07 155.425 2263.83C152.821 2261.46 152.276 2257.92 153.866 2254.77C155.429 2251.7 157.877 2249.69 161.397 2249.39C164.1 2249.17 166.825 2249 169.533 2249.13C185.03 2249.89 200.039 2252.82 214.079 2259.71C219.711 2262.48 225.141 2265.62 230.139 2269.43C232.247 2271.02 234.178 2272.84 235.927 2274.34" fill="#EB00FF" fill-opacity="0.8" shape-rendering="crispEdges"/>
</g>
<g filter="url(#filter7_bdif_26_936)">
<path d="M135.923 2255.75C134.802 2255.6 133.977 2255.54 133.171 2255.38C128.999 2254.57 124.81 2254.66 120.655 2255.26C118.564 2255.56 116.533 2256.27 114.5 2256.86C113.926 2257.04 113.422 2257.45 112.781 2257.82C117.844 2260.72 130.743 2259.62 135.923 2255.75V2255.75ZM143.06 2249.6C146.404 2252.86 146.811 2257.01 144.309 2260.2C143.321 2261.45 142.056 2262.52 140.756 2263.45C137.828 2265.53 134.533 2266.82 130.969 2267.44C125.856 2268.31 120.746 2268.95 115.557 2268.06C112.866 2267.59 110.228 2266.99 107.848 2265.6C102.065 2262.24 101.534 2255.3 106.772 2251.1C107.915 2250.18 109.245 2249.46 110.57 2248.81C113.745 2247.25 117.157 2246.58 120.648 2246.17C125.559 2245.6 130.459 2245.87 135.348 2246.31C138.442 2246.59 141.158 2247.95 143.06 2249.6" fill="#EB00FF" fill-opacity="0.8" shape-rendering="crispEdges"/>
</g>
</g>
<rect x="35" y="30" width="1108" height="2428" rx="64" stroke="#3F0007" stroke-width="28"/>
</g>
<defs>
<filter id="filter0_d_26_936" x="0" y="0" width="1208" height="2528" filterUnits="userSpaceOnUse" color-interpolation-filters="sRGB">
<feFlood flood-opacity="0" result="BackgroundImageFix"/>
<feColorMatrix in="SourceAlpha" type="matrix" values="0 0 0 0 0 0 0 0 0 0 0 0 0 0 0 0 0 0 127 0" result="hardAlpha"/>
<feMorphology radius="4" operator="dilate" in="SourceAlpha" result="effect1_dropShadow_26_936"/>
<feOffset dx="15" dy="20"/>
<feGaussianBlur stdDeviation="16"/>
<feColorMatrix type="matrix" values="0 0 0 0 0 0 0 0 0 0 0 0 0 0 0 0 0 0 0.2 0"/>
<feBlend mode="normal" in2="BackgroundImageFix" result="effect1_dropShadow_26_936"/>
<feBlend mode="normal" in="SourceGraphic" in2="effect1_dropShadow_26_936" result="shape"/>
</filter>
<filter id="filter1_bdif_26_936" x="-6.84967" y="1821.03" width="727.803" height="717.766" filterUnits="userSpaceOnUse" color-interpolation-filters="sRGB">
<feFlood flood-opacity="0" result="BackgroundImageFix"/>
<feGaussianBlur in="BackgroundImageFix" stdDeviation="5"/>
<feComposite in2="SourceAlpha" operator="in" result="effect1_backgroundBlur_26_936"/>
<feColorMatrix in="SourceAlpha" type="matrix" values="0 0 0 0 0 0 0 0 0 0 0 0 0 0 0 0 0 0 127 0" result="hardAlpha"/>
<feOffset dx="10" dy="-4"/>
<feGaussianBlur stdDeviation="1.5"/>
<feComposite in2="hardAlpha" operator="out"/>
<feColorMatrix type="matrix" values="0 0 0 0 0.796079 0 0 0 0 0.00392157 0 0 0 0 0.870588 0 0 0 0.7 0"/>
<feBlend mode="normal" in2="effect1_backgroundBlur_26_936" result="effect2_dropShadow_26_936"/>
<feBlend mode="normal" in="SourceGraphic" in2="effect2_dropShadow_26_936" result="shape"/>
<feColorMatrix in="SourceAlpha" type="matrix" values="0 0 0 0 0 0 0 0 0 0 0 0 0 0 0 0 0 0 127 0" result="hardAlpha"/>
<feOffset dx="12" dy="-5"/>
<feGaussianBlur stdDeviation="2"/>
<feComposite in2="hardAlpha" operator="arithmetic" k2="-1" k3="1"/>
<feColorMatrix type="matrix" values="0 0 0 0 0.796078 0 0 0 0 0.00392157 0 0 0 0 0.870588 0 0 0 0.5 0"/>
<feBlend mode="normal" in2="shape" result="effect3_innerShadow_26_936"/>
<feGaussianBlur stdDeviation="3" result="effect4_foregroundBlur_26_936"/>
</filter>
<filter id="filter2_bdif_26_936" x="279.353" y="2283.05" width="374.072" height="116.671" filterUnits="userSpaceOnUse" color-interpolation-filters="sRGB">
<feFlood flood-opacity="0" result="BackgroundImageFix"/>
<feGaussianBlur in="BackgroundImageFix" stdDeviation="5"/>
<feComposite in2="SourceAlpha" operator="in" result="effect1_backgroundBlur_26_936"/>
<feColorMatrix in="SourceAlpha" type="matrix" values="0 0 0 0 0 0 0 0 0 0 0 0 0 0 0 0 0 0 127 0" result="hardAlpha"/>
<feOffset dx="10" dy="-4"/>
<feGaussianBlur stdDeviation="1.5"/>
<feComposite in2="hardAlpha" operator="out"/>
<feColorMatrix type="matrix" values="0 0 0 0 0.796079 0 0 0 0 0.00392157 0 0 0 0 0.870588 0 0 0 0.7 0"/>
<feBlend mode="normal" in2="effect1_backgroundBlur_26_936" result="effect2_dropShadow_26_936"/>
<feBlend mode="normal" in="SourceGraphic" in2="effect2_dropShadow_26_936" result="shape"/>
<feColorMatrix in="SourceAlpha" type="matrix" values="0 0 0 0 0 0 0 0 0 0 0 0 0 0 0 0 0 0 127 0" result="hardAlpha"/>
<feOffset dx="12" dy="-5"/>
<feGaussianBlur stdDeviation="2"/>
<feComposite in2="hardAlpha" operator="arithmetic" k2="-1" k3="1"/>
<feColorMatrix type="matrix" values="0 0 0 0 0.796078 0 0 0 0 0.00392157 0 0 0 0 0.870588 0 0 0 0.5 0"/>
<feBlend mode="normal" in2="shape" result="effect3_innerShadow_26_936"/>
<feGaussianBlur stdDeviation="3" result="effect4_foregroundBlur_26_936"/>
</filter>
<filter id="filter3_bdif_26_936" x="131.3" y="1886.29" width="120.284" height="370.689" filterUnits="userSpaceOnUse" color-interpolation-filters="sRGB">
<feFlood flood-opacity="0" result="BackgroundImageFix"/>
<feGaussianBlur in="BackgroundImageFix" stdDeviation="5"/>
<feComposite in2="SourceAlpha" operator="in" result="effect1_backgroundBlur_26_936"/>
<feColorMatrix in="SourceAlpha" type="matrix" values="0 0 0 0 0 0 0 0 0 0 0 0 0 0 0 0 0 0 127 0" result="hardAlpha"/>
<feOffset dx="10" dy="-4"/>
<feGaussianBlur stdDeviation="1.5"/>
<feComposite in2="hardAlpha" operator="out"/>
<feColorMatrix type="matrix" values="0 0 0 0 0.796079 0 0 0 0 0.00392157 0 0 0 0 0.870588 0 0 0 0.7 0"/>
<feBlend mode="normal" in2="effect1_backgroundBlur_26_936" result="effect2_dropShadow_26_936"/>
<feBlend mode="normal" in="SourceGraphic" in2="effect2_dropShadow_26_936" result="shape"/>
<feColorMatrix in="SourceAlpha" type="matrix" values="0 0 0 0 0 0 0 0 0 0 0 0 0 0 0 0 0 0 127 0" result="hardAlpha"/>
<feOffset dx="12" dy="-5"/>
<feGaussianBlur stdDeviation="2"/>
<feComposite in2="hardAlpha" operator="arithmetic" k2="-1" k3="1"/>
<feColorMatrix type="matrix" values="0 0 0 0 0.796078 0 0 0 0 0.00392157 0 0 0 0 0.870588 0 0 0 0.5 0"/>
<feBlend mode="normal" in2="shape" result="effect3_innerShadow_26_936"/>
<feGaussianBlur stdDeviation="3" result="effect4_foregroundBlur_26_936"/>
</filter>
<filter id="filter4_bdif_26_936" x="55.6406" y="2258.33" width="89.7592" height="141.081" filterUnits="userSpaceOnUse" color-interpolation-filters="sRGB">
<feFlood flood-opacity="0" result="BackgroundImageFix"/>
<feGaussianBlur in="BackgroundImageFix" stdDeviation="5"/>
<feComposite in2="SourceAlpha" operator="in" result="effect1_backgroundBlur_26_936"/>
<feColorMatrix in="SourceAlpha" type="matrix" values="0 0 0 0 0 0 0 0 0 0 0 0 0 0 0 0 0 0 127 0" result="hardAlpha"/>
<feOffset dx="10" dy="-4"/>
<feGaussianBlur stdDeviation="1.5"/>
<feComposite in2="hardAlpha" operator="out"/>
<feColorMatrix type="matrix" values="0 0 0 0 0.796079 0 0 0 0 0.00392157 0 0 0 0 0.870588 0 0 0 0.7 0"/>
<feBlend mode="normal" in2="effect1_backgroundBlur_26_936" result="effect2_dropShadow_26_936"/>
<feBlend mode="normal" in="SourceGraphic" in2="effect2_dropShadow_26_936" result="shape"/>
<feColorMatrix in="SourceAlpha" type="matrix" values="0 0 0 0 0 0 0 0 0 0 0 0 0 0 0 0 0 0 127 0" result="hardAlpha"/>
<feOffset dx="12" dy="-5"/>
<feGaussianBlur stdDeviation="2"/>
<feComposite in2="hardAlpha" operator="arithmetic" k2="-1" k3="1"/>
<feColorMatrix type="matrix" values="0 0 0 0 0.796078 0 0 0 0 0.00392157 0 0 0 0 0.870588 0 0 0 0.5 0"/>
<feBlend mode="normal" in2="shape" result="effect3_innerShadow_26_936"/>
<feGaussianBlur stdDeviation="3" result="effect4_foregroundBlur_26_936"/>
</filter>
<filter id="filter5_bdif_26_936" x="137.149" y="2390.59" width="143.145" height="83.5752" filterUnits="userSpaceOnUse" color-interpolation-filters="sRGB">
<feFlood flood-opacity="0" result="BackgroundImageFix"/>
<feGaussianBlur in="BackgroundImageFix" stdDeviation="5"/>
<feComposite in2="SourceAlpha" operator="in" result="effect1_backgroundBlur_26_936"/>
<feColorMatrix in="SourceAlpha" type="matrix" values="0 0 0 0 0 0 0 0 0 0 0 0 0 0 0 0 0 0 127 0" result="hardAlpha"/>
<feOffset dx="10" dy="-4"/>
<feGaussianBlur stdDeviation="1.5"/>
<feComposite in2="hardAlpha" operator="out"/>
<feColorMatrix type="matrix" values="0 0 0 0 0.796079 0 0 0 0 0.00392157 0 0 0 0 0.870588 0 0 0 0.7 0"/>
<feBlend mode="normal" in2="effect1_backgroundBlur_26_936" result="effect2_dropShadow_26_936"/>
<feBlend mode="normal" in="SourceGraphic" in2="effect2_dropShadow_26_936" result="shape"/>
<feColorMatrix in="SourceAlpha" type="matrix" values="0 0 0 0 0 0 0 0 0 0 0 0 0 0 0 0 0 0 127 0" result="hardAlpha"/>
<feOffset dx="12" dy="-5"/>
<feGaussianBlur stdDeviation="2"/>
<feComposite in2="hardAlpha" operator="arithmetic" k2="-1" k3="1"/>
<feColorMatrix type="matrix" values="0 0 0 0 0.796078 0 0 0 0 0.00392157 0 0 0 0 0.870588 0 0 0 0.5 0"/>
<feBlend mode="normal" in2="shape" result="effect3_innerShadow_26_936"/>
<feGaussianBlur stdDeviation="3" result="effect4_foregroundBlur_26_936"/>
</filter>
<filter id="filter6_bdif_26_936" x="142.974" y="2239.09" width="115.9" height="70.335" filterUnits="userSpaceOnUse" color-interpolation-filters="sRGB">
<feFlood flood-opacity="0" result="BackgroundImageFix"/>
<feGaussianBlur in="BackgroundImageFix" stdDeviation="5"/>
<feComposite in2="SourceAlpha" operator="in" result="effect1_backgroundBlur_26_936"/>
<feColorMatrix in="SourceAlpha" type="matrix" values="0 0 0 0 0 0 0 0 0 0 0 0 0 0 0 0 0 0 127 0" result="hardAlpha"/>
<feOffset dx="10" dy="-4"/>
<feGaussianBlur stdDeviation="1.5"/>
<feComposite in2="hardAlpha" operator="out"/>
<feColorMatrix type="matrix" values="0 0 0 0 0.796079 0 0 0 0 0.00392157 0 0 0 0 0.870588 0 0 0 0.7 0"/>
<feBlend mode="normal" in2="effect1_backgroundBlur_26_936" result="effect2_dropShadow_26_936"/>
<feBlend mode="normal" in="SourceGraphic" in2="effect2_dropShadow_26_936" result="shape"/>
<feColorMatrix in="SourceAlpha" type="matrix" values="0 0 0 0 0 0 0 0 0 0 0 0 0 0 0 0 0 0 127 0" result="hardAlpha"/>
<feOffset dx="12" dy="-5"/>
<feGaussianBlur stdDeviation="2"/>
<feComposite in2="hardAlpha" operator="arithmetic" k2="-1" k3="1"/>
<feColorMatrix type="matrix" values="0 0 0 0 0.796078 0 0 0 0 0.00392157 0 0 0 0 0.870588 0 0 0 0.5 0"/>
<feBlend mode="normal" in2="shape" result="effect3_innerShadow_26_936"/>
<feGaussianBlur stdDeviation="3" result="effect4_foregroundBlur_26_936"/>
</filter>
<filter id="filter7_bdif_26_936" x="93.1553" y="2235.85" width="65.7654" height="42.6406" filterUnits="userSpaceOnUse" color-interpolation-filters="sRGB">
<feFlood flood-opacity="0" result="BackgroundImageFix"/>
<feGaussianBlur in="BackgroundImageFix" stdDeviation="5"/>
<feComposite in2="SourceAlpha" operator="in" result="effect1_backgroundBlur_26_936"/>
<feColorMatrix in="SourceAlpha" type="matrix" values="0 0 0 0 0 0 0 0 0 0 0 0 0 0 0 0 0 0 127 0" result="hardAlpha"/>
<feOffset dx="10" dy="-4"/>
<feGaussianBlur stdDeviation="1.5"/>
<feComposite in2="hardAlpha" operator="out"/>
<feColorMatrix type="matrix" values="0 0 0 0 0.796079 0 0 0 0 0.00392157 0 0 0 0 0.870588 0 0 0 0.7 0"/>
<feBlend mode="normal" in2="effect1_backgroundBlur_26_936" result="effect2_dropShadow_26_936"/>
<feBlend mode="normal" in="SourceGraphic" in2="effect2_dropShadow_26_936" result="shape"/>
<feColorMatrix in="SourceAlpha" type="matrix" values="0 0 0 0 0 0 0 0 0 0 0 0 0 0 0 0 0 0 127 0" result="hardAlpha"/>
<feOffset dx="12" dy="-5"/>
<feGaussianBlur stdDeviation="2"/>
<feComposite in2="hardAlpha" operator="arithmetic" k2="-1" k3="1"/>
<feColorMatrix type="matrix" values="0 0 0 0 0.796078 0 0 0 0 0.00392157 0 0 0 0 0.870588 0 0 0 0.5 0"/>
<feBlend mode="normal" in2="shape" result="effect3_innerShadow_26_936"/>
<feGaussianBlur stdDeviation="3" result="effect4_foregroundBlur_26_936"/>
</filter>
<clipPath id="clip0_26_936">
<rect x="49" y="44" width="1080" height="2400" rx="50" fill="white"/>
</clipPath>
</defs>
</svg>
